<?xml version="1.0" encoding="UTF-8" standalone="no"?><svg xmlns="http://www.w3.org/2000/svg" xmlns:xlink="http://www.w3.org/1999/xlink" contentScriptType="application/ecmascript" contentStyleType="text/css" height="141px" preserveAspectRatio="none" style="width:267px;height:141px;" version="1.1" viewBox="0 0 267 141" width="267px" zoomAndPan="magnify"><defs><filter height="300%" id="f1gnkqp9wznffi" width="300%" x="-1" y="-1"><feGaussianBlur result="blurOut" stdDeviation="2.0"/><feColorMatrix in="blurOut" result="blurOut2" type="matrix" values="0 0 0 0 0 0 0 0 0 0 0 0 0 0 0 0 0 0 .4 0"/><feOffset dx="4.0" dy="4.0" in="blurOut2" result="blurOut3"/><feBlend in="SourceGraphic" in2="blurOut3" mode="normal"/></filter></defs><g><!--class MessageInfo--><a href="MessageInfo.html" target="_top" xlink:actuate="onRequest" xlink:show="new" xlink:title="MessageInfo.html" xlink:type="simple"><rect fill="#FEFECE" filter="url(#f1gnkqp9wznffi)" height="99.8203" id="MessageInfo" style="stroke: #A80036; stroke-width: 1.5;" width="250" x="6" y="8"/><ellipse cx="91.25" cy="24" fill="#ADD1B2" rx="11" ry="11" style="stroke: #A80036; stroke-width: 1.0;"/><path d="M93.7231,30.1431 Q93.1421,30.4419 92.5029,30.5913 Q91.8638,30.7407 91.1582,30.7407 Q88.6514,30.7407 87.3315,29.0889 Q86.0117,27.437 86.0117,24.3159 Q86.0117,21.1865 87.3315,19.5347 Q88.6514,17.8828 91.1582,17.8828 Q91.8638,17.8828 92.5112,18.0322 Q93.1587,18.1816 93.7231,18.4805 L93.7231,21.2031 Q93.0923,20.6221 92.4988,20.3523 Q91.9053,20.0825 91.2744,20.0825 Q89.9297,20.0825 89.2449,21.1492 Q88.5601,22.2158 88.5601,24.3159 Q88.5601,26.4077 89.2449,27.4744 Q89.9297,28.541 91.2744,28.541 Q91.9053,28.541 92.4988,28.2712 Q93.0923,28.0015 93.7231,27.4204 Z "/><text fill="#000000" font-family="sans-serif" font-size="12" lengthAdjust="spacingAndGlyphs" textLength="71" x="111.75" y="28.5352">MessageInfo</text><line style="stroke: #A80036; stroke-width: 1.5;" x1="7" x2="255" y1="40" y2="40"/><line style="stroke: #A80036; stroke-width: 1.5;" x1="7" x2="255" y1="48" y2="48"/><ellipse cx="17" cy="59.9775" fill="#84BE84" rx="3" ry="3" style="stroke: #038048; stroke-width: 1.0;"/><text fill="#000000" font-family="sans-serif" font-size="11" lengthAdjust="spacingAndGlyphs" textLength="224" x="26" y="62.6348">MessageInfo(UUID, LocalDateTime, String)</text><ellipse cx="17" cy="72.9326" fill="#84BE84" rx="3" ry="3" style="stroke: #038048; stroke-width: 1.0;"/><text fill="#000000" font-family="sans-serif" font-size="11" lengthAdjust="spacingAndGlyphs" textLength="105" x="26" y="75.5898">getSenderId(): UUID</text><ellipse cx="17" cy="85.8877" fill="#84BE84" rx="3" ry="3" style="stroke: #038048; stroke-width: 1.0;"/><text fill="#000000" font-family="sans-serif" font-size="11" lengthAdjust="spacingAndGlyphs" textLength="135" x="26" y="88.5449">getTime(): LocalDateTime</text><ellipse cx="17" cy="98.8428" fill="#84BE84" rx="3" ry="3" style="stroke: #038048; stroke-width: 1.0;"/><text fill="#000000" font-family="sans-serif" font-size="11" lengthAdjust="spacingAndGlyphs" textLength="106" x="26" y="101.5">getContent(): String</text></a><text fill="#888888" font-family="sans-serif" font-size="10" lengthAdjust="spacingAndGlyphs" textLength="182" x="46" y="127.668">UMLDoclet 1.1.4, PlantUML 1.2019.05</text><!--
@startuml

    class MessageInfo [[MessageInfo.html]] {
        +MessageInfo(UUID, LocalDateTime, String)
        +getSenderId(): UUID
        +getTime(): LocalDateTime
        +getContent(): String
    }


    center footer UMLDoclet 1.1.4, PlantUML 1.2019.05
@enduml

PlantUML version 1.2019.05(Sat Apr 20 12:45:36 EDT 2019)
(APACHE source distribution)
Java Runtime: Java(TM) SE Runtime Environment
JVM: Java HotSpot(TM) 64-Bit Server VM
Java Version: 1.8.0_261-b12
Operating System: Mac OS X
OS Version: 10.16
Default Encoding: UTF-8
Language: en
Country: CA
--></g></svg>