<?xml version="1.0" encoding="UTF-8" standalone="no"?><svg xmlns="http://www.w3.org/2000/svg" xmlns:xlink="http://www.w3.org/1999/xlink" contentScriptType="application/ecmascript" contentStyleType="text/css" height="224px" preserveAspectRatio="none" style="width:326px;height:224px;" version="1.1" viewBox="0 0 326 224" width="326px" zoomAndPan="magnify"><defs><filter height="300%" id="f1t1sam8bsm1q6" width="300%" x="-1" y="-1"><feGaussianBlur result="blurOut" stdDeviation="2.0"/><feColorMatrix in="blurOut" result="blurOut2" type="matrix" values="0 0 0 0 0 0 0 0 0 0 0 0 0 0 0 0 0 0 .4 0"/><feOffset dx="4.0" dy="4.0" in="blurOut2" result="blurOut3"/><feBlend in="SourceGraphic" in2="blurOut3" mode="normal"/></filter></defs><g><!--cluster value_holders--><polygon fill="#FFFFFF" filter="url(#f1t1sam8bsm1q6)" points="22,24,127,24,134,46.4883,304,46.4883,304,175,22,175,22,24" style="stroke: #000000; stroke-width: 1.5;"/><line style="stroke: #000000; stroke-width: 1.5;" x1="22" x2="134" y1="46.4883" y2="46.4883"/><text fill="#000000" font-family="sans-serif" font-size="14" font-weight="bold" lengthAdjust="spacingAndGlyphs" textLength="99" x="26" y="39.5352">value_holders</text><!--class value_holders.MessageInfo--><a href="MessageInfo.html" target="_top" xlink:actuate="onRequest" xlink:show="new" xlink:title="MessageInfo.html" xlink:type="simple"><rect fill="#FEFECE" filter="url(#f1t1sam8bsm1q6)" height="99.8203" id="value_holders.MessageInfo" style="stroke: #A80036; stroke-width: 1.5;" width="250" x="38" y="59"/><ellipse cx="123.25" cy="75" fill="#ADD1B2" rx="11" ry="11" style="stroke: #A80036; stroke-width: 1.0;"/><path d="M125.7231,81.1431 Q125.1421,81.4419 124.5029,81.5913 Q123.8638,81.7407 123.1582,81.7407 Q120.6514,81.7407 119.3315,80.0889 Q118.0117,78.437 118.0117,75.3159 Q118.0117,72.1865 119.3315,70.5347 Q120.6514,68.8828 123.1582,68.8828 Q123.8638,68.8828 124.5112,69.0322 Q125.1587,69.1816 125.7231,69.4805 L125.7231,72.2031 Q125.0923,71.6221 124.4988,71.3523 Q123.9053,71.0825 123.2744,71.0825 Q121.9297,71.0825 121.2449,72.1492 Q120.5601,73.2158 120.5601,75.3159 Q120.5601,77.4077 121.2449,78.4744 Q121.9297,79.541 123.2744,79.541 Q123.9053,79.541 124.4988,79.2712 Q125.0923,79.0015 125.7231,78.4204 Z "/><text fill="#000000" font-family="sans-serif" font-size="12" lengthAdjust="spacingAndGlyphs" textLength="71" x="143.75" y="79.5352">MessageInfo</text><line style="stroke: #A80036; stroke-width: 1.5;" x1="39" x2="287" y1="91" y2="91"/><line style="stroke: #A80036; stroke-width: 1.5;" x1="39" x2="287" y1="99" y2="99"/><ellipse cx="49" cy="110.9775" fill="#84BE84" rx="3" ry="3" style="stroke: #038048; stroke-width: 1.0;"/><text fill="#000000" font-family="sans-serif" font-size="11" lengthAdjust="spacingAndGlyphs" textLength="224" x="58" y="113.6348">MessageInfo(UUID, LocalDateTime, String)</text><ellipse cx="49" cy="123.9326" fill="#84BE84" rx="3" ry="3" style="stroke: #038048; stroke-width: 1.0;"/><text fill="#000000" font-family="sans-serif" font-size="11" lengthAdjust="spacingAndGlyphs" textLength="105" x="58" y="126.5898">getSenderId(): UUID</text><ellipse cx="49" cy="136.8877" fill="#84BE84" rx="3" ry="3" style="stroke: #038048; stroke-width: 1.0;"/><text fill="#000000" font-family="sans-serif" font-size="11" lengthAdjust="spacingAndGlyphs" textLength="135" x="58" y="139.5449">getTime(): LocalDateTime</text><ellipse cx="49" cy="149.8428" fill="#84BE84" rx="3" ry="3" style="stroke: #038048; stroke-width: 1.0;"/><text fill="#000000" font-family="sans-serif" font-size="11" lengthAdjust="spacingAndGlyphs" textLength="106" x="58" y="152.5">getContent(): String</text></a><text fill="#888888" font-family="sans-serif" font-size="10" lengthAdjust="spacingAndGlyphs" textLength="182" x="78" y="210.668">UMLDoclet 1.1.4, PlantUML 1.2019.05</text><!--
@startuml

    namespace value_holders {

        class MessageInfo [[MessageInfo.html]] {
            +MessageInfo(UUID, LocalDateTime, String)
            +getSenderId(): UUID
            +getTime(): LocalDateTime
            +getContent(): String
        }

    }


    center footer UMLDoclet 1.1.4, PlantUML 1.2019.05
@enduml

PlantUML version 1.2019.05(Sat Apr 20 12:45:36 EDT 2019)
(APACHE source distribution)
Java Runtime: Java(TM) SE Runtime Environment
JVM: Java HotSpot(TM) 64-Bit Server VM
Java Version: 1.8.0_261-b12
Operating System: Mac OS X
OS Version: 10.16
Default Encoding: UTF-8
Language: en
Country: CA
--></g></svg>