<?xml version="1.0" encoding="UTF-8" standalone="no"?><svg xmlns="http://www.w3.org/2000/svg" xmlns:xlink="http://www.w3.org/1999/xlink" contentScriptType="application/ecmascript" contentStyleType="text/css" height="224px" preserveAspectRatio="none" style="width:682px;height:224px;" version="1.1" viewBox="0 0 682 224" width="682px" zoomAndPan="magnify"><defs><filter height="300%" id="fwrpzq17spp5v" width="300%" x="-1" y="-1"><feGaussianBlur result="blurOut" stdDeviation="2.0"/><feColorMatrix in="blurOut" result="blurOut2" type="matrix" values="0 0 0 0 0 0 0 0 0 0 0 0 0 0 0 0 0 0 .4 0"/><feOffset dx="4.0" dy="4.0" in="blurOut2" result="blurOut3"/><feBlend in="SourceGraphic" in2="blurOut3" mode="normal"/></filter></defs><g><!--cluster main--><polygon fill="#FFFFFF" filter="url(#fwrpzq17spp5v)" points="22,24,64,24,71,46.4883,660,46.4883,660,175,22,175,22,24" style="stroke: #000000; stroke-width: 1.5;"/><line style="stroke: #000000; stroke-width: 1.5;" x1="22" x2="71" y1="46.4883" y2="46.4883"/><text fill="#000000" font-family="sans-serif" font-size="14" font-weight="bold" lengthAdjust="spacingAndGlyphs" textLength="36" x="26" y="39.5352">main</text><!--class main.App--><a href="App.html" target="_top" xlink:actuate="onRequest" xlink:show="new" xlink:title="App.html" xlink:type="simple"><rect fill="#FEFECE" filter="url(#fwrpzq17spp5v)" height="60.9551" id="main.App" style="stroke: #A80036; stroke-width: 1.5;" width="129" x="514.5" y="78.5"/><ellipse cx="562.75" cy="94.5" fill="#ADD1B2" rx="11" ry="11" style="stroke: #A80036; stroke-width: 1.0;"/><path d="M565.2231,100.6431 Q564.6421,100.9419 564.0029,101.0913 Q563.3638,101.2407 562.6582,101.2407 Q560.1514,101.2407 558.8315,99.5889 Q557.5117,97.937 557.5117,94.8159 Q557.5117,91.6865 558.8315,90.0347 Q560.1514,88.3828 562.6582,88.3828 Q563.3638,88.3828 564.0112,88.5322 Q564.6587,88.6816 565.2231,88.9805 L565.2231,91.7031 Q564.5923,91.1221 563.9988,90.8523 Q563.4053,90.5825 562.7744,90.5825 Q561.4297,90.5825 560.7449,91.6492 Q560.0601,92.7158 560.0601,94.8159 Q560.0601,96.9077 560.7449,97.9744 Q561.4297,99.041 562.7744,99.041 Q563.4053,99.041 563.9988,98.7712 Q564.5923,98.5015 565.2231,97.9204 Z "/><text fill="#000000" font-family="sans-serif" font-size="12" lengthAdjust="spacingAndGlyphs" textLength="24" x="583.25" y="99.0352">App</text><line style="stroke: #A80036; stroke-width: 1.5;" x1="515.5" x2="642.5" y1="110.5" y2="110.5"/><line style="stroke: #A80036; stroke-width: 1.5;" x1="515.5" x2="642.5" y1="118.5" y2="118.5"/><ellipse cx="525.5" cy="130.4775" fill="#84BE84" rx="3" ry="3" style="stroke: #038048; stroke-width: 1.0;"/><text fill="#000000" font-family="sans-serif" font-size="11" lengthAdjust="spacingAndGlyphs" text-decoration="underline" textLength="103" x="534.5" y="133.1348">main(String[]): void</text></a><!--class main.TestData--><a href="TestData.html" target="_top" xlink:actuate="onRequest" xlink:show="new" xlink:title="TestData.html" xlink:type="simple"><rect fill="#FEFECE" filter="url(#fwrpzq17spp5v)" height="99.8203" id="main.TestData" style="stroke: #A80036; stroke-width: 1.5;" width="441" x="38.5" y="59"/><ellipse cx="228.75" cy="75" fill="#ADD1B2" rx="11" ry="11" style="stroke: #A80036; stroke-width: 1.0;"/><path d="M231.2231,81.1431 Q230.6421,81.4419 230.0029,81.5913 Q229.3638,81.7407 228.6582,81.7407 Q226.1514,81.7407 224.8315,80.0889 Q223.5117,78.437 223.5117,75.3159 Q223.5117,72.1865 224.8315,70.5347 Q226.1514,68.8828 228.6582,68.8828 Q229.3638,68.8828 230.0112,69.0322 Q230.6587,69.1816 231.2231,69.4805 L231.2231,72.2031 Q230.5923,71.6221 229.9988,71.3523 Q229.4053,71.0825 228.7744,71.0825 Q227.4297,71.0825 226.7449,72.1492 Q226.0601,73.2158 226.0601,75.3159 Q226.0601,77.4077 226.7449,78.4744 Q227.4297,79.541 228.7744,79.541 Q229.4053,79.541 229.9988,79.2712 Q230.5923,79.0015 231.2231,78.4204 Z "/><text fill="#000000" font-family="sans-serif" font-size="12" lengthAdjust="spacingAndGlyphs" textLength="52" x="249.25" y="79.5352">TestData</text><line style="stroke: #A80036; stroke-width: 1.5;" x1="39.5" x2="478.5" y1="91" y2="91"/><line style="stroke: #A80036; stroke-width: 1.5;" x1="39.5" x2="478.5" y1="99" y2="99"/><ellipse cx="49.5" cy="110.9775" fill="#84BE84" rx="3" ry="3" style="stroke: #038048; stroke-width: 1.0;"/><text fill="#000000" font-family="sans-serif" font-size="11" lengthAdjust="spacingAndGlyphs" text-decoration="underline" textLength="241" x="58.5" y="113.6348">generateUsersDemoData(UserManager): void</text><ellipse cx="49.5" cy="123.9326" fill="#84BE84" rx="3" ry="3" style="stroke: #038048; stroke-width: 1.0;"/><text fill="#000000" font-family="sans-serif" font-size="11" lengthAdjust="spacingAndGlyphs" text-decoration="underline" textLength="253" x="58.5" y="126.5898">generateRoomsDemoData(RoomManager): void</text><ellipse cx="49.5" cy="136.8877" fill="#84BE84" rx="3" ry="3" style="stroke: #038048; stroke-width: 1.0;"/><text fill="#000000" font-family="sans-serif" font-size="11" lengthAdjust="spacingAndGlyphs" text-decoration="underline" textLength="415" x="58.5" y="139.5449">generateEventsDemoData(RoomManager, EventsManager, UserManager): void</text><ellipse cx="49.5" cy="149.8428" fill="#84BE84" rx="3" ry="3" style="stroke: #038048; stroke-width: 1.0;"/><text fill="#000000" font-family="sans-serif" font-size="11" lengthAdjust="spacingAndGlyphs" text-decoration="underline" textLength="412" x="58.5" y="152.5">generateConversationsDemoData(UserManager, ConversationManager): void</text></a><text fill="#888888" font-family="sans-serif" font-size="10" lengthAdjust="spacingAndGlyphs" textLength="182" x="256" y="210.668">UMLDoclet 1.1.4, PlantUML 1.2019.05</text><!--
@startuml

    namespace main {

        class App [[App.html]] {
            {static} +main(String[]): void
        }

        class TestData [[TestData.html]] {
            {static} +generateUsersDemoData(UserManager): void
            {static} +generateRoomsDemoData(RoomManager): void
            {static} +generateEventsDemoData(RoomManager, EventsManager, UserManager): void
            {static} +generateConversationsDemoData(UserManager, ConversationManager): void
        }

    }


    center footer UMLDoclet 1.1.4, PlantUML 1.2019.05
@enduml

PlantUML version 1.2019.05(Sat Apr 20 12:45:36 EDT 2019)
(APACHE source distribution)
Java Runtime: Java(TM) SE Runtime Environment
JVM: Java HotSpot(TM) 64-Bit Server VM
Java Version: 1.8.0_261-b12
Operating System: Mac OS X
OS Version: 10.16
Default Encoding: UTF-8
Language: en
Country: CA
--></g></svg>