<?xml version="1.0" encoding="UTF-8" standalone="no"?><svg xmlns="http://www.w3.org/2000/svg" xmlns:xlink="http://www.w3.org/1999/xlink" contentScriptType="application/ecmascript" contentStyleType="text/css" height="167px" preserveAspectRatio="none" style="width:335px;height:167px;" version="1.1" viewBox="0 0 335 167" width="335px" zoomAndPan="magnify"><defs><filter height="300%" id="flfowk5g8qtzy" width="300%" x="-1" y="-1"><feGaussianBlur result="blurOut" stdDeviation="2.0"/><feColorMatrix in="blurOut" result="blurOut2" type="matrix" values="0 0 0 0 0 0 0 0 0 0 0 0 0 0 0 0 0 0 .4 0"/><feOffset dx="4.0" dy="4.0" in="blurOut2" result="blurOut3"/><feBlend in="SourceGraphic" in2="blurOut3" mode="normal"/></filter></defs><g><!--class UserRequestManager--><a href="UserRequestManager.html" target="_top" xlink:actuate="onRequest" xlink:show="new" xlink:title="UserRequestManager.html" xlink:type="simple"><rect fill="#FEFECE" filter="url(#flfowk5g8qtzy)" height="125.7305" id="UserRequestManager" style="stroke: #A80036; stroke-width: 1.5;" width="318" x="6" y="8"/><ellipse cx="99.25" cy="24" fill="#ADD1B2" rx="11" ry="11" style="stroke: #A80036; stroke-width: 1.0;"/><path d="M101.7231,30.1431 Q101.1421,30.4419 100.5029,30.5913 Q99.8638,30.7407 99.1582,30.7407 Q96.6514,30.7407 95.3315,29.0889 Q94.0117,27.437 94.0117,24.3159 Q94.0117,21.1865 95.3315,19.5347 Q96.6514,17.8828 99.1582,17.8828 Q99.8638,17.8828 100.5112,18.0322 Q101.1587,18.1816 101.7231,18.4805 L101.7231,21.2031 Q101.0923,20.6221 100.4988,20.3523 Q99.9053,20.0825 99.2744,20.0825 Q97.9297,20.0825 97.2449,21.1492 Q96.5601,22.2158 96.5601,24.3159 Q96.5601,26.4077 97.2449,27.4744 Q97.9297,28.541 99.2744,28.541 Q99.9053,28.541 100.4988,28.2712 Q101.0923,28.0015 101.7231,27.4204 Z "/><text fill="#000000" font-family="sans-serif" font-size="12" lengthAdjust="spacingAndGlyphs" textLength="123" x="119.75" y="28.5352">UserRequestManager</text><line style="stroke: #A80036; stroke-width: 1.5;" x1="7" x2="323" y1="40" y2="40"/><line style="stroke: #A80036; stroke-width: 1.5;" x1="7" x2="323" y1="48" y2="48"/><ellipse cx="17" cy="59.9775" fill="#84BE84" rx="3" ry="3" style="stroke: #038048; stroke-width: 1.0;"/><text fill="#000000" font-family="sans-serif" font-size="11" lengthAdjust="spacingAndGlyphs" textLength="227" x="26" y="62.6348">UserRequestManager(List&lt;UserRequest&gt;)</text><ellipse cx="17" cy="72.9326" fill="#84BE84" rx="3" ry="3" style="stroke: #038048; stroke-width: 1.0;"/><text fill="#000000" font-family="sans-serif" font-size="11" lengthAdjust="spacingAndGlyphs" textLength="223" x="26" y="75.5898">addUserRequest(UUID, String, UUID): void</text><ellipse cx="17" cy="85.8877" fill="#84BE84" rx="3" ry="3" style="stroke: #038048; stroke-width: 1.0;"/><text fill="#000000" font-family="sans-serif" font-size="11" lengthAdjust="spacingAndGlyphs" textLength="292" x="26" y="88.5449">getUserRequestByStatus(boolean): List&lt;UserRequest&gt;</text><ellipse cx="17" cy="98.8428" fill="#84BE84" rx="3" ry="3" style="stroke: #038048; stroke-width: 1.0;"/><text fill="#000000" font-family="sans-serif" font-size="11" lengthAdjust="spacingAndGlyphs" textLength="171" x="26" y="101.5">findRequestIndexById(UUID): int</text><ellipse cx="17" cy="111.7979" fill="#84BE84" rx="3" ry="3" style="stroke: #038048; stroke-width: 1.0;"/><text fill="#000000" font-family="sans-serif" font-size="11" lengthAdjust="spacingAndGlyphs" textLength="218" x="26" y="114.4551">markUserRequestAsAddressed(int): void</text><ellipse cx="17" cy="124.7529" fill="#84BE84" rx="3" ry="3" style="stroke: #038048; stroke-width: 1.0;"/><text fill="#000000" font-family="sans-serif" font-size="11" lengthAdjust="spacingAndGlyphs" textLength="224" x="26" y="127.4102">getAllUserRequests(): List&lt;UserRequest&gt;</text></a><text fill="#888888" font-family="sans-serif" font-size="10" lengthAdjust="spacingAndGlyphs" textLength="182" x="80" y="153.668">UMLDoclet 1.1.4, PlantUML 1.2019.05</text><!--
@startuml

    class UserRequestManager [[UserRequestManager.html]] {
        +UserRequestManager(List<UserRequest>)
        +addUserRequest(UUID, String, UUID): void
        +getUserRequestByStatus(boolean): List<UserRequest>
        +findRequestIndexById(UUID): int
        +markUserRequestAsAddressed(int): void
        +getAllUserRequests(): List<UserRequest>
    }


    center footer UMLDoclet 1.1.4, PlantUML 1.2019.05
@enduml

PlantUML version 1.2019.05(Sat Apr 20 12:45:36 EDT 2019)
(APACHE source distribution)
Java Runtime: Java(TM) SE Runtime Environment
JVM: Java HotSpot(TM) 64-Bit Server VM
Java Version: 1.8.0_261-b12
Operating System: Mac OS X
OS Version: 10.16
Default Encoding: UTF-8
Language: en
Country: CA
--></g></svg>