<?xml version="1.0" encoding="UTF-8" standalone="no"?><svg xmlns="http://www.w3.org/2000/svg" xmlns:xlink="http://www.w3.org/1999/xlink" contentScriptType="application/ecmascript" contentStyleType="text/css" height="102px" preserveAspectRatio="none" style="width:285px;height:102px;" version="1.1" viewBox="0 0 285 102" width="285px" zoomAndPan="magnify"><defs><filter height="300%" id="f19ob2di9zo7nj" width="300%" x="-1" y="-1"><feGaussianBlur result="blurOut" stdDeviation="2.0"/><feColorMatrix in="blurOut" result="blurOut2" type="matrix" values="0 0 0 0 0 0 0 0 0 0 0 0 0 0 0 0 0 0 .4 0"/><feOffset dx="4.0" dy="4.0" in="blurOut2" result="blurOut3"/><feBlend in="SourceGraphic" in2="blurOut3" mode="normal"/></filter></defs><g><!--class UserControllerFactory--><a href="UserControllerFactory.html" target="_top" xlink:actuate="onRequest" xlink:show="new" xlink:title="UserControllerFactory.html" xlink:type="simple"><rect fill="#FEFECE" filter="url(#f19ob2di9zo7nj)" height="60.9551" id="UserControllerFactory" style="stroke: #A80036; stroke-width: 1.5;" width="268" x="6" y="8"/><ellipse cx="74.25" cy="24" fill="#ADD1B2" rx="11" ry="11" style="stroke: #A80036; stroke-width: 1.0;"/><path d="M76.7231,30.1431 Q76.1421,30.4419 75.5029,30.5913 Q74.8638,30.7407 74.1582,30.7407 Q71.6514,30.7407 70.3315,29.0889 Q69.0117,27.437 69.0117,24.3159 Q69.0117,21.1865 70.3315,19.5347 Q71.6514,17.8828 74.1582,17.8828 Q74.8638,17.8828 75.5112,18.0322 Q76.1587,18.1816 76.7231,18.4805 L76.7231,21.2031 Q76.0923,20.6221 75.4988,20.3523 Q74.9053,20.0825 74.2744,20.0825 Q72.9297,20.0825 72.2449,21.1492 Q71.5601,22.2158 71.5601,24.3159 Q71.5601,26.4077 72.2449,27.4744 Q72.9297,28.541 74.2744,28.541 Q74.9053,28.541 75.4988,28.2712 Q76.0923,28.0015 76.7231,27.4204 Z "/><text fill="#000000" font-family="sans-serif" font-size="12" lengthAdjust="spacingAndGlyphs" textLength="123" x="94.75" y="28.5352">UserControllerFactory</text><line style="stroke: #A80036; stroke-width: 1.5;" x1="7" x2="273" y1="40" y2="40"/><line style="stroke: #A80036; stroke-width: 1.5;" x1="7" x2="273" y1="48" y2="48"/><ellipse cx="17" cy="59.9775" fill="#84BE84" rx="3" ry="3" style="stroke: #038048; stroke-width: 1.0;"/><text fill="#000000" font-family="sans-serif" font-size="11" lengthAdjust="spacingAndGlyphs" text-decoration="underline" textLength="242" x="26" y="62.6348">getUserController(UserType): UserController</text></a><text fill="#888888" font-family="sans-serif" font-size="10" lengthAdjust="spacingAndGlyphs" textLength="182" x="55" y="88.668">UMLDoclet 1.1.4, PlantUML 1.2019.05</text><!--
@startuml

    class UserControllerFactory [[UserControllerFactory.html]] {
        {static} +getUserController(UserType): UserController
    }


    center footer UMLDoclet 1.1.4, PlantUML 1.2019.05
@enduml

PlantUML version 1.2019.05(Sat Apr 20 12:45:36 EDT 2019)
(APACHE source distribution)
Java Runtime: Java(TM) SE Runtime Environment
JVM: Java HotSpot(TM) 64-Bit Server VM
Java Version: 1.8.0_261-b12
Operating System: Mac OS X
OS Version: 10.16
Default Encoding: UTF-8
Language: en
Country: CA
--></g></svg>