<?xml version="1.0" encoding="UTF-8" standalone="no"?><svg xmlns="http://www.w3.org/2000/svg" xmlns:xlink="http://www.w3.org/1999/xlink" contentScriptType="application/ecmascript" contentStyleType="text/css" height="805px" preserveAspectRatio="none" style="width:1792px;height:805px;" version="1.1" viewBox="0 0 1792 805" width="1792px" zoomAndPan="magnify"><defs><filter height="300%" id="f91715yukf5y" width="300%" x="-1" y="-1"><feGaussianBlur result="blurOut" stdDeviation="2.0"/><feColorMatrix in="blurOut" result="blurOut2" type="matrix" values="0 0 0 0 0 0 0 0 0 0 0 0 0 0 0 0 0 0 .4 0"/><feOffset dx="4.0" dy="4.0" in="blurOut2" result="blurOut3"/><feBlend in="SourceGraphic" in2="blurOut3" mode="normal"/></filter></defs><g><!--cluster entities--><polygon fill="#FFFFFF" filter="url(#f91715yukf5y)" points="22,156,83,156,90,178.4883,1667,178.4883,1667,756,22,756,22,156" style="stroke: #000000; stroke-width: 1.5;"/><line style="stroke: #000000; stroke-width: 1.5;" x1="22" x2="90" y1="178.4883" y2="178.4883"/><text fill="#000000" font-family="sans-serif" font-size="14" font-weight="bold" lengthAdjust="spacingAndGlyphs" textLength="55" x="26" y="171.5352">entities</text><!--cluster java.io--><polygon fill="#FFFFFF" filter="url(#f91715yukf5y)" points="887,24,939,24,946,46.4883,1017,46.4883,1017,123,887,123,887,24" style="stroke: #000000; stroke-width: 1.5;"/><line style="stroke: #000000; stroke-width: 1.5;" x1="887" x2="946" y1="46.4883" y2="46.4883"/><text fill="#000000" font-family="sans-serif" font-size="14" font-weight="bold" lengthAdjust="spacingAndGlyphs" textLength="46" x="891" y="39.5352">java.io</text><!--class entities.Conversation--><a href="Conversation.html" target="_top" xlink:actuate="onRequest" xlink:show="new" xlink:title="Conversation.html" xlink:type="simple"><rect fill="#FEFECE" filter="url(#f91715yukf5y)" height="138.6855" id="entities.Conversation" style="stroke: #A80036; stroke-width: 1.5;" width="237" x="38.5" y="288"/><ellipse cx="115.75" cy="304" fill="#ADD1B2" rx="11" ry="11" style="stroke: #A80036; stroke-width: 1.0;"/><path d="M118.2231,310.1431 Q117.6421,310.4419 117.0029,310.5913 Q116.3638,310.7407 115.6582,310.7407 Q113.1514,310.7407 111.8315,309.0889 Q110.5117,307.437 110.5117,304.3159 Q110.5117,301.1865 111.8315,299.5347 Q113.1514,297.8828 115.6582,297.8828 Q116.3638,297.8828 117.0112,298.0322 Q117.6587,298.1816 118.2231,298.4805 L118.2231,301.2031 Q117.5923,300.6221 116.9988,300.3523 Q116.4053,300.0825 115.7744,300.0825 Q114.4297,300.0825 113.7449,301.1492 Q113.0601,302.2158 113.0601,304.3159 Q113.0601,306.4077 113.7449,307.4744 Q114.4297,308.541 115.7744,308.541 Q116.4053,308.541 116.9988,308.2712 Q117.5923,308.0015 118.2231,307.4204 Z "/><text fill="#000000" font-family="sans-serif" font-size="12" lengthAdjust="spacingAndGlyphs" textLength="74" x="136.25" y="308.5352">Conversation</text><line style="stroke: #A80036; stroke-width: 1.5;" x1="39.5" x2="274.5" y1="320" y2="320"/><line style="stroke: #A80036; stroke-width: 1.5;" x1="39.5" x2="274.5" y1="328" y2="328"/><ellipse cx="49.5" cy="339.9775" fill="#84BE84" rx="3" ry="3" style="stroke: #038048; stroke-width: 1.0;"/><text fill="#000000" font-family="sans-serif" font-size="11" lengthAdjust="spacingAndGlyphs" textLength="211" x="58.5" y="342.6348">Conversation(List&lt;UUID&gt;, ConvoType)</text><ellipse cx="49.5" cy="352.9326" fill="#84BE84" rx="3" ry="3" style="stroke: #038048; stroke-width: 1.0;"/><text fill="#000000" font-family="sans-serif" font-size="11" lengthAdjust="spacingAndGlyphs" textLength="149" x="58.5" y="355.5898">addMessage(Message): void</text><ellipse cx="49.5" cy="365.8877" fill="#84BE84" rx="3" ry="3" style="stroke: #038048; stroke-width: 1.0;"/><text fill="#000000" font-family="sans-serif" font-size="11" lengthAdjust="spacingAndGlyphs" textLength="68" x="58.5" y="368.5449">getId(): UUID</text><ellipse cx="49.5" cy="378.8428" fill="#84BE84" rx="3" ry="3" style="stroke: #038048; stroke-width: 1.0;"/><text fill="#000000" font-family="sans-serif" font-size="11" lengthAdjust="spacingAndGlyphs" textLength="158" x="58.5" y="381.5">getParticipants(): List&lt;UUID&gt;</text><ellipse cx="49.5" cy="391.7979" fill="#84BE84" rx="3" ry="3" style="stroke: #038048; stroke-width: 1.0;"/><text fill="#000000" font-family="sans-serif" font-size="11" lengthAdjust="spacingAndGlyphs" textLength="118" x="58.5" y="394.4551">getType(): ConvoType</text><ellipse cx="49.5" cy="404.7529" fill="#84BE84" rx="3" ry="3" style="stroke: #038048; stroke-width: 1.0;"/><text fill="#000000" font-family="sans-serif" font-size="11" lengthAdjust="spacingAndGlyphs" textLength="144" x="58.5" y="407.4102">setEventName(String): void</text><ellipse cx="49.5" cy="417.708" fill="#84BE84" rx="3" ry="3" style="stroke: #038048; stroke-width: 1.0;"/><text fill="#000000" font-family="sans-serif" font-size="11" lengthAdjust="spacingAndGlyphs" textLength="122" x="58.5" y="420.3652">getEventName(): String</text></a><!--class entities.Event--><a href="Event.html" target="_top" xlink:actuate="onRequest" xlink:show="new" xlink:title="Event.html" xlink:type="simple"><rect fill="#FEFECE" filter="url(#f91715yukf5y)" height="333.0117" id="entities.Event" style="stroke: #A80036; stroke-width: 1.5;" width="372" x="311" y="191"/><ellipse cx="477.25" cy="207" fill="#ADD1B2" rx="11" ry="11" style="stroke: #A80036; stroke-width: 1.0;"/><path d="M479.7231,213.1431 Q479.1421,213.4419 478.5029,213.5913 Q477.8638,213.7407 477.1582,213.7407 Q474.6514,213.7407 473.3315,212.0889 Q472.0117,210.437 472.0117,207.3159 Q472.0117,204.1865 473.3315,202.5347 Q474.6514,200.8828 477.1582,200.8828 Q477.8638,200.8828 478.5112,201.0322 Q479.1587,201.1816 479.7231,201.4805 L479.7231,204.2031 Q479.0923,203.6221 478.4988,203.3523 Q477.9053,203.0825 477.2744,203.0825 Q475.9297,203.0825 475.2449,204.1492 Q474.5601,205.2158 474.5601,207.3159 Q474.5601,209.4077 475.2449,210.4744 Q475.9297,211.541 477.2744,211.541 Q477.9053,211.541 478.4988,211.2712 Q479.0923,211.0015 479.7231,210.4204 Z "/><text fill="#000000" font-family="sans-serif" font-size="12" lengthAdjust="spacingAndGlyphs" textLength="31" x="497.75" y="211.5352">Event</text><line style="stroke: #A80036; stroke-width: 1.5;" x1="312" x2="682" y1="223" y2="223"/><line style="stroke: #A80036; stroke-width: 1.5;" x1="312" x2="682" y1="231" y2="231"/><ellipse cx="322" cy="242.9775" fill="#84BE84" rx="3" ry="3" style="stroke: #038048; stroke-width: 1.0;"/><text fill="#000000" font-family="sans-serif" font-size="11" lengthAdjust="spacingAndGlyphs" textLength="346" x="331" y="245.6348">Event(String, LocalDateTime, UUID, int, int, List&lt;RoomFeatures&gt;)</text><ellipse cx="322" cy="255.9326" fill="#84BE84" rx="3" ry="3" style="stroke: #038048; stroke-width: 1.0;"/><text fill="#000000" font-family="sans-serif" font-size="11" lengthAdjust="spacingAndGlyphs" textLength="97" x="331" y="258.5898">getEventId(): UUID</text><ellipse cx="322" cy="268.8877" fill="#84BE84" rx="3" ry="3" style="stroke: #038048; stroke-width: 1.0;"/><text fill="#000000" font-family="sans-serif" font-size="11" lengthAdjust="spacingAndGlyphs" textLength="122" x="331" y="271.5449">getEventName(): String</text><ellipse cx="322" cy="281.8428" fill="#84BE84" rx="3" ry="3" style="stroke: #038048; stroke-width: 1.0;"/><text fill="#000000" font-family="sans-serif" font-size="11" lengthAdjust="spacingAndGlyphs" textLength="167" x="331" y="284.5">getSpeakers(): HashSet&lt;UUID&gt;</text><ellipse cx="322" cy="294.7979" fill="#84BE84" rx="3" ry="3" style="stroke: #038048; stroke-width: 1.0;"/><text fill="#000000" font-family="sans-serif" font-size="11" lengthAdjust="spacingAndGlyphs" textLength="126" x="331" y="297.4551">addSpeaker(UUID): void</text><ellipse cx="322" cy="307.7529" fill="#84BE84" rx="3" ry="3" style="stroke: #038048; stroke-width: 1.0;"/><text fill="#000000" font-family="sans-serif" font-size="11" lengthAdjust="spacingAndGlyphs" textLength="187" x="331" y="310.4102">addSpeaker(HashSet&lt;UUID&gt;): void</text><ellipse cx="322" cy="320.708" fill="#84BE84" rx="3" ry="3" style="stroke: #038048; stroke-width: 1.0;"/><text fill="#000000" font-family="sans-serif" font-size="11" lengthAdjust="spacingAndGlyphs" textLength="146" x="331" y="323.3652">removeSpeaker(UUID): void</text><ellipse cx="322" cy="333.6631" fill="#84BE84" rx="3" ry="3" style="stroke: #038048; stroke-width: 1.0;"/><text fill="#000000" font-family="sans-serif" font-size="11" lengthAdjust="spacingAndGlyphs" textLength="118" x="331" y="336.3203">getEventRoom(): UUID</text><ellipse cx="322" cy="346.6182" fill="#84BE84" rx="3" ry="3" style="stroke: #038048; stroke-width: 1.0;"/><text fill="#000000" font-family="sans-serif" font-size="11" lengthAdjust="spacingAndGlyphs" textLength="146" x="331" y="349.2754">getAttendees(): Set&lt;UUID&gt;</text><ellipse cx="322" cy="359.5732" fill="#84BE84" rx="3" ry="3" style="stroke: #038048; stroke-width: 1.0;"/><text fill="#000000" font-family="sans-serif" font-size="11" lengthAdjust="spacingAndGlyphs" textLength="132" x="331" y="362.2305">addAttendee(UUID): void</text><ellipse cx="322" cy="372.5283" fill="#84BE84" rx="3" ry="3" style="stroke: #038048; stroke-width: 1.0;"/><text fill="#000000" font-family="sans-serif" font-size="11" lengthAdjust="spacingAndGlyphs" textLength="152" x="331" y="375.1855">removeAttendee(UUID): void</text><ellipse cx="322" cy="385.4834" fill="#84BE84" rx="3" ry="3" style="stroke: #038048; stroke-width: 1.0;"/><text fill="#000000" font-family="sans-serif" font-size="11" lengthAdjust="spacingAndGlyphs" textLength="140" x="331" y="388.1406">getEventSchedule(): String</text><ellipse cx="322" cy="398.4385" fill="#84BE84" rx="3" ry="3" style="stroke: #038048; stroke-width: 1.0;"/><text fill="#000000" font-family="sans-serif" font-size="11" lengthAdjust="spacingAndGlyphs" textLength="124" x="331" y="401.0957">getEventString(): String</text><ellipse cx="322" cy="411.3936" fill="#84BE84" rx="3" ry="3" style="stroke: #038048; stroke-width: 1.0;"/><text fill="#000000" font-family="sans-serif" font-size="11" lengthAdjust="spacingAndGlyphs" textLength="210" x="331" y="414.0508">getEventDateAndTime(): LocalDateTime</text><ellipse cx="322" cy="424.3486" fill="#84BE84" rx="3" ry="3" style="stroke: #038048; stroke-width: 1.0;"/><text fill="#000000" font-family="sans-serif" font-size="11" lengthAdjust="spacingAndGlyphs" textLength="169" x="331" y="427.0059">isUserSignedUp(UUID): boolean</text><ellipse cx="322" cy="437.3037" fill="#84BE84" rx="3" ry="3" style="stroke: #038048; stroke-width: 1.0;"/><text fill="#000000" font-family="sans-serif" font-size="11" lengthAdjust="spacingAndGlyphs" textLength="91" x="331" y="439.9609">getCapacity(): int</text><ellipse cx="322" cy="450.2588" fill="#84BE84" rx="3" ry="3" style="stroke: #038048; stroke-width: 1.0;"/><text fill="#000000" font-family="sans-serif" font-size="11" lengthAdjust="spacingAndGlyphs" textLength="113" x="331" y="452.916">setCapacity(int): void</text><ellipse cx="322" cy="463.2139" fill="#84BE84" rx="3" ry="3" style="stroke: #038048; stroke-width: 1.0;"/><text fill="#000000" font-family="sans-serif" font-size="11" lengthAdjust="spacingAndGlyphs" textLength="118" x="331" y="465.8711">getEventType(): String</text><ellipse cx="322" cy="476.1689" fill="#84BE84" rx="3" ry="3" style="stroke: #038048; stroke-width: 1.0;"/><text fill="#000000" font-family="sans-serif" font-size="11" lengthAdjust="spacingAndGlyphs" textLength="130" x="331" y="478.8262">displayFeatures(): String</text><ellipse cx="322" cy="489.124" fill="#84BE84" rx="3" ry="3" style="stroke: #038048; stroke-width: 1.0;"/><text fill="#000000" font-family="sans-serif" font-size="11" lengthAdjust="spacingAndGlyphs" textLength="193" x="331" y="491.7813">hasFeature(RoomFeatures): boolean</text><ellipse cx="322" cy="502.0791" fill="#84BE84" rx="3" ry="3" style="stroke: #038048; stroke-width: 1.0;"/><text fill="#000000" font-family="sans-serif" font-size="11" lengthAdjust="spacingAndGlyphs" textLength="174" x="331" y="504.7363">addFeature(RoomFeatures): void</text><ellipse cx="322" cy="515.0342" fill="#84BE84" rx="3" ry="3" style="stroke: #038048; stroke-width: 1.0;"/><text fill="#000000" font-family="sans-serif" font-size="11" lengthAdjust="spacingAndGlyphs" textLength="194" x="331" y="517.6914">removeFeature(RoomFeatures): void</text></a><!--class entities.UserRequest--><a href="UserRequest.html" target="_top" xlink:actuate="onRequest" xlink:show="new" xlink:title="UserRequest.html" xlink:type="simple"><rect fill="#FEFECE" filter="url(#f91715yukf5y)" height="138.6855" id="entities.UserRequest" style="stroke: #A80036; stroke-width: 1.5;" width="200" x="718" y="288"/><ellipse cx="777.25" cy="304" fill="#ADD1B2" rx="11" ry="11" style="stroke: #A80036; stroke-width: 1.0;"/><path d="M779.7231,310.1431 Q779.1421,310.4419 778.5029,310.5913 Q777.8638,310.7407 777.1582,310.7407 Q774.6514,310.7407 773.3315,309.0889 Q772.0117,307.437 772.0117,304.3159 Q772.0117,301.1865 773.3315,299.5347 Q774.6514,297.8828 777.1582,297.8828 Q777.8638,297.8828 778.5112,298.0322 Q779.1587,298.1816 779.7231,298.4805 L779.7231,301.2031 Q779.0923,300.6221 778.4988,300.3523 Q777.9053,300.0825 777.2744,300.0825 Q775.9297,300.0825 775.2449,301.1492 Q774.5601,302.2158 774.5601,304.3159 Q774.5601,306.4077 775.2449,307.4744 Q775.9297,308.541 777.2744,308.541 Q777.9053,308.541 778.4988,308.2712 Q779.0923,308.0015 779.7231,307.4204 Z "/><text fill="#000000" font-family="sans-serif" font-size="12" lengthAdjust="spacingAndGlyphs" textLength="73" x="797.75" y="308.5352">UserRequest</text><line style="stroke: #A80036; stroke-width: 1.5;" x1="719" x2="917" y1="320" y2="320"/><line style="stroke: #A80036; stroke-width: 1.5;" x1="719" x2="917" y1="328" y2="328"/><ellipse cx="729" cy="339.9775" fill="#84BE84" rx="3" ry="3" style="stroke: #038048; stroke-width: 1.0;"/><text fill="#000000" font-family="sans-serif" font-size="11" lengthAdjust="spacingAndGlyphs" textLength="174" x="738" y="342.6348">UserRequest(UUID, String, UUID)</text><ellipse cx="729" cy="352.9326" fill="#84BE84" rx="3" ry="3" style="stroke: #038048; stroke-width: 1.0;"/><text fill="#000000" font-family="sans-serif" font-size="11" lengthAdjust="spacingAndGlyphs" textLength="141" x="738" y="355.5898">getIsAddressed(): boolean</text><ellipse cx="729" cy="365.8877" fill="#84BE84" rx="3" ry="3" style="stroke: #038048; stroke-width: 1.0;"/><text fill="#000000" font-family="sans-serif" font-size="11" lengthAdjust="spacingAndGlyphs" textLength="105" x="738" y="368.5449">getSenderId(): UUID</text><ellipse cx="729" cy="378.8428" fill="#84BE84" rx="3" ry="3" style="stroke: #038048; stroke-width: 1.0;"/><text fill="#000000" font-family="sans-serif" font-size="11" lengthAdjust="spacingAndGlyphs" textLength="156" x="738" y="381.5">getAssociatedEventId(): UUID</text><ellipse cx="729" cy="391.7979" fill="#84BE84" rx="3" ry="3" style="stroke: #038048; stroke-width: 1.0;"/><text fill="#000000" font-family="sans-serif" font-size="11" lengthAdjust="spacingAndGlyphs" textLength="106" x="738" y="394.4551">getContent(): String</text><ellipse cx="729" cy="404.7529" fill="#84BE84" rx="3" ry="3" style="stroke: #038048; stroke-width: 1.0;"/><text fill="#000000" font-family="sans-serif" font-size="11" lengthAdjust="spacingAndGlyphs" textLength="68" x="738" y="407.4102">getId(): UUID</text><ellipse cx="729" cy="417.708" fill="#84BE84" rx="3" ry="3" style="stroke: #038048; stroke-width: 1.0;"/><text fill="#000000" font-family="sans-serif" font-size="11" lengthAdjust="spacingAndGlyphs" textLength="163" x="738" y="420.3652">setIsAddressed(boolean): void</text></a><!--class entities.Vip--><a href="Vip.html" target="_top" xlink:actuate="onRequest" xlink:show="new" xlink:title="Vip.html" xlink:type="simple"><rect fill="#FEFECE" filter="url(#f91715yukf5y)" height="138.6855" id="entities.Vip" style="stroke: #A80036; stroke-width: 1.5;" width="253" x="1007.5" y="601"/><ellipse cx="1120.25" cy="617" fill="#ADD1B2" rx="11" ry="11" style="stroke: #A80036; stroke-width: 1.0;"/><path d="M1122.7231,623.1431 Q1122.1421,623.4419 1121.5029,623.5913 Q1120.8638,623.7407 1120.1582,623.7407 Q1117.6514,623.7407 1116.3315,622.0889 Q1115.0117,620.437 1115.0117,617.3159 Q1115.0117,614.1865 1116.3315,612.5347 Q1117.6514,610.8828 1120.1582,610.8828 Q1120.8638,610.8828 1121.5112,611.0322 Q1122.1587,611.1816 1122.7231,611.4805 L1122.7231,614.2031 Q1122.0923,613.6221 1121.4988,613.3523 Q1120.9053,613.0825 1120.2744,613.0825 Q1118.9297,613.0825 1118.2449,614.1492 Q1117.5601,615.2158 1117.5601,617.3159 Q1117.5601,619.4077 1118.2449,620.4744 Q1118.9297,621.541 1120.2744,621.541 Q1120.9053,621.541 1121.4988,621.2712 Q1122.0923,621.0015 1122.7231,620.4204 Z "/><text fill="#000000" font-family="sans-serif" font-size="12" lengthAdjust="spacingAndGlyphs" textLength="19" x="1140.75" y="621.5352">Vip</text><line style="stroke: #A80036; stroke-width: 1.5;" x1="1008.5" x2="1259.5" y1="633" y2="633"/><line style="stroke: #A80036; stroke-width: 1.5;" x1="1008.5" x2="1259.5" y1="641" y2="641"/><ellipse cx="1018.5" cy="652.9775" fill="#84BE84" rx="3" ry="3" style="stroke: #038048; stroke-width: 1.0;"/><text fill="#000000" font-family="sans-serif" font-size="11" lengthAdjust="spacingAndGlyphs" textLength="133" x="1027.5" y="655.6348">Vip(String, String, String)</text><ellipse cx="1018.5" cy="665.9326" fill="#84BE84" rx="3" ry="3" style="stroke: #038048; stroke-width: 1.0;"/><text fill="#000000" font-family="sans-serif" font-size="11" lengthAdjust="spacingAndGlyphs" textLength="167" x="1027.5" y="668.5898">interestedInEventId(UUID): void</text><ellipse cx="1018.5" cy="678.8877" fill="#84BE84" rx="3" ry="3" style="stroke: #038048; stroke-width: 1.0;"/><text fill="#000000" font-family="sans-serif" font-size="11" lengthAdjust="spacingAndGlyphs" textLength="181" x="1027.5" y="681.5449">uninterestedInEventId(UUID): void</text><ellipse cx="1018.5" cy="691.8428" fill="#84BE84" rx="3" ry="3" style="stroke: #038048; stroke-width: 1.0;"/><text fill="#000000" font-family="sans-serif" font-size="11" lengthAdjust="spacingAndGlyphs" textLength="224" x="1027.5" y="694.5">getInterestedEventsIds(): HashSet&lt;UUID&gt;</text><ellipse cx="1018.5" cy="704.7979" fill="#84BE84" rx="3" ry="3" style="stroke: #038048; stroke-width: 1.0;"/><text fill="#000000" font-family="sans-serif" font-size="11" lengthAdjust="spacingAndGlyphs" textLength="146" x="1027.5" y="707.4551">likeSpeakerById(UUID): void</text><ellipse cx="1018.5" cy="717.7529" fill="#84BE84" rx="3" ry="3" style="stroke: #038048; stroke-width: 1.0;"/><text fill="#000000" font-family="sans-serif" font-size="11" lengthAdjust="spacingAndGlyphs" textLength="162" x="1027.5" y="720.4102">dislikeSpeakerById(UUID): void</text><ellipse cx="1018.5" cy="730.708" fill="#84BE84" rx="3" ry="3" style="stroke: #038048; stroke-width: 1.0;"/><text fill="#000000" font-family="sans-serif" font-size="11" lengthAdjust="spacingAndGlyphs" textLength="227" x="1027.5" y="733.3652">getFavouriteSpeakersId(): HashSet&lt;UUID&gt;</text></a><!--class entities.User--><a href="User.html" target="_top" xlink:actuate="onRequest" xlink:show="new" xlink:title="User.html" xlink:type="simple"><rect fill="#FEFECE" filter="url(#f91715yukf5y)" height="320.0566" id="entities.User" style="stroke: #A80036; stroke-width: 1.5;" width="361" x="953.5" y="197.5"/><ellipse cx="1116.75" cy="213.5" fill="#ADD1B2" rx="11" ry="11" style="stroke: #A80036; stroke-width: 1.0;"/><path d="M1119.2231,219.6431 Q1118.6421,219.9419 1118.0029,220.0913 Q1117.3638,220.2407 1116.6582,220.2407 Q1114.1514,220.2407 1112.8315,218.5889 Q1111.5117,216.937 1111.5117,213.8159 Q1111.5117,210.6865 1112.8315,209.0347 Q1114.1514,207.3828 1116.6582,207.3828 Q1117.3638,207.3828 1118.0112,207.5322 Q1118.6587,207.6816 1119.2231,207.9805 L1119.2231,210.7031 Q1118.5923,210.1221 1117.9988,209.8523 Q1117.4053,209.5825 1116.7744,209.5825 Q1115.4297,209.5825 1114.7449,210.6492 Q1114.0601,211.7158 1114.0601,213.8159 Q1114.0601,215.9077 1114.7449,216.9744 Q1115.4297,218.041 1116.7744,218.041 Q1117.4053,218.041 1117.9988,217.7712 Q1118.5923,217.5015 1119.2231,216.9204 Z "/><text fill="#000000" font-family="sans-serif" font-size="12" lengthAdjust="spacingAndGlyphs" textLength="26" x="1137.25" y="218.0352">User</text><line style="stroke: #A80036; stroke-width: 1.5;" x1="954.5" x2="1313.5" y1="229.5" y2="229.5"/><line style="stroke: #A80036; stroke-width: 1.5;" x1="954.5" x2="1313.5" y1="237.5" y2="237.5"/><ellipse cx="964.5" cy="249.4775" fill="#84BE84" rx="3" ry="3" style="stroke: #038048; stroke-width: 1.0;"/><text fill="#000000" font-family="sans-serif" font-size="11" lengthAdjust="spacingAndGlyphs" textLength="198" x="973.5" y="252.1348">User(String, String, String, UserType)</text><ellipse cx="964.5" cy="262.4326" fill="#84BE84" rx="3" ry="3" style="stroke: #038048; stroke-width: 1.0;"/><text fill="#000000" font-family="sans-serif" font-size="11" lengthAdjust="spacingAndGlyphs" textLength="108" x="973.5" y="265.0898">getType(): UserType</text><ellipse cx="964.5" cy="275.3877" fill="#84BE84" rx="3" ry="3" style="stroke: #038048; stroke-width: 1.0;"/><text fill="#000000" font-family="sans-serif" font-size="11" lengthAdjust="spacingAndGlyphs" textLength="130" x="973.5" y="278.0449">setType(UserType): void</text><ellipse cx="964.5" cy="288.3428" fill="#84BE84" rx="3" ry="3" style="stroke: #038048; stroke-width: 1.0;"/><text fill="#000000" font-family="sans-serif" font-size="11" lengthAdjust="spacingAndGlyphs" textLength="115" x="973.5" y="291">setName(String): void</text><ellipse cx="964.5" cy="301.2979" fill="#84BE84" rx="3" ry="3" style="stroke: #038048; stroke-width: 1.0;"/><text fill="#000000" font-family="sans-serif" font-size="11" lengthAdjust="spacingAndGlyphs" textLength="179" x="973.5" y="303.9551">getEventsList(): ArrayList&lt;UUID&gt;</text><ellipse cx="964.5" cy="314.2529" fill="#84BE84" rx="3" ry="3" style="stroke: #038048; stroke-width: 1.0;"/><text fill="#000000" font-family="sans-serif" font-size="11" lengthAdjust="spacingAndGlyphs" textLength="184" x="973.5" y="316.9102">getFriendsList(): ArrayList&lt;UUID&gt;</text><ellipse cx="964.5" cy="327.208" fill="#84BE84" rx="3" ry="3" style="stroke: #038048; stroke-width: 1.0;"/><text fill="#000000" font-family="sans-serif" font-size="11" lengthAdjust="spacingAndGlyphs" textLength="216" x="973.5" y="329.8652">getConversationList(): ArrayList&lt;UUID&gt;</text><ellipse cx="964.5" cy="340.1631" fill="#84BE84" rx="3" ry="3" style="stroke: #038048; stroke-width: 1.0;"/><text fill="#000000" font-family="sans-serif" font-size="11" lengthAdjust="spacingAndGlyphs" textLength="261" x="973.5" y="342.8203">getUnreadConversationsList(): ArrayList&lt;UUID&gt;</text><ellipse cx="964.5" cy="353.1182" fill="#84BE84" rx="3" ry="3" style="stroke: #038048; stroke-width: 1.0;"/><text fill="#000000" font-family="sans-serif" font-size="11" lengthAdjust="spacingAndGlyphs" textLength="314" x="973.5" y="355.7754">getArchivedConversationsList(): HashMap&lt;UUID, Integer&gt;</text><ellipse cx="964.5" cy="366.0732" fill="#84BE84" rx="3" ry="3" style="stroke: #038048; stroke-width: 1.0;"/><text fill="#000000" font-family="sans-serif" font-size="11" lengthAdjust="spacingAndGlyphs" textLength="306" x="973.5" y="368.7305">getDeletedConversationsList(): HashMap&lt;UUID, Integer&gt;</text><ellipse cx="964.5" cy="379.0283" fill="#84BE84" rx="3" ry="3" style="stroke: #038048; stroke-width: 1.0;"/><text fill="#000000" font-family="sans-serif" font-size="11" lengthAdjust="spacingAndGlyphs" textLength="93" x="973.5" y="381.6855">getName(): String</text><ellipse cx="964.5" cy="391.9834" fill="#84BE84" rx="3" ry="3" style="stroke: #038048; stroke-width: 1.0;"/><text fill="#000000" font-family="sans-serif" font-size="11" lengthAdjust="spacingAndGlyphs" textLength="68" x="973.5" y="394.6406">getId(): UUID</text><ellipse cx="964.5" cy="404.9385" fill="#84BE84" rx="3" ry="3" style="stroke: #038048; stroke-width: 1.0;"/><text fill="#000000" font-family="sans-serif" font-size="11" lengthAdjust="spacingAndGlyphs" textLength="114" x="973.5" y="407.5957">getPassword(): String</text><ellipse cx="964.5" cy="417.8936" fill="#84BE84" rx="3" ry="3" style="stroke: #038048; stroke-width: 1.0;"/><text fill="#000000" font-family="sans-serif" font-size="11" lengthAdjust="spacingAndGlyphs" textLength="91" x="973.5" y="420.5508">getEmail(): String</text><ellipse cx="964.5" cy="430.8486" fill="#84BE84" rx="3" ry="3" style="stroke: #038048; stroke-width: 1.0;"/><text fill="#000000" font-family="sans-serif" font-size="11" lengthAdjust="spacingAndGlyphs" textLength="157" x="973.5" y="433.5059">addToFriendsList(UUID): void</text><ellipse cx="964.5" cy="443.8037" fill="#84BE84" rx="3" ry="3" style="stroke: #038048; stroke-width: 1.0;"/><text fill="#000000" font-family="sans-serif" font-size="11" lengthAdjust="spacingAndGlyphs" textLength="191" x="973.5" y="446.4609">removeFromFriendsList(UUID): void</text><ellipse cx="964.5" cy="456.7588" fill="#84BE84" rx="3" ry="3" style="stroke: #038048; stroke-width: 1.0;"/><text fill="#000000" font-family="sans-serif" font-size="11" lengthAdjust="spacingAndGlyphs" textLength="152" x="973.5" y="459.416">addToEventsList(UUID): void</text><ellipse cx="964.5" cy="469.7139" fill="#84BE84" rx="3" ry="3" style="stroke: #038048; stroke-width: 1.0;"/><text fill="#000000" font-family="sans-serif" font-size="11" lengthAdjust="spacingAndGlyphs" textLength="186" x="973.5" y="472.3711">removeFromEventsList(UUID): void</text><ellipse cx="964.5" cy="482.6689" fill="#84BE84" rx="3" ry="3" style="stroke: #038048; stroke-width: 1.0;"/><text fill="#000000" font-family="sans-serif" font-size="11" lengthAdjust="spacingAndGlyphs" textLength="195" x="973.5" y="485.3262">addToConversationsList(UUID): void</text><ellipse cx="964.5" cy="495.624" fill="#84BE84" rx="3" ry="3" style="stroke: #038048; stroke-width: 1.0;"/><text fill="#000000" font-family="sans-serif" font-size="11" lengthAdjust="spacingAndGlyphs" textLength="229" x="973.5" y="498.2813">removeFromConversationsList(UUID): void</text><ellipse cx="964.5" cy="508.5791" fill="#84BE84" rx="3" ry="3" style="stroke: #038048; stroke-width: 1.0;"/><text fill="#000000" font-family="sans-serif" font-size="11" lengthAdjust="spacingAndGlyphs" textLength="335" x="973.5" y="511.2363">addToHashMap(HashMap&lt;UUID, Integer&gt;, UUID, Integer): void</text></a><!--class entities.Room--><a href="Room.html" target="_top" xlink:actuate="onRequest" xlink:show="new" xlink:title="Room.html" xlink:type="simple"><rect fill="#FEFECE" filter="url(#f91715yukf5y)" height="203.4609" id="entities.Room" style="stroke: #A80036; stroke-width: 1.5;" width="301" x="1349.5" y="256"/><ellipse cx="1479.25" cy="272" fill="#ADD1B2" rx="11" ry="11" style="stroke: #A80036; stroke-width: 1.0;"/><path d="M1481.7231,278.1431 Q1481.1421,278.4419 1480.5029,278.5913 Q1479.8638,278.7407 1479.1582,278.7407 Q1476.6514,278.7407 1475.3315,277.0889 Q1474.0117,275.437 1474.0117,272.3159 Q1474.0117,269.1865 1475.3315,267.5347 Q1476.6514,265.8828 1479.1582,265.8828 Q1479.8638,265.8828 1480.5112,266.0322 Q1481.1587,266.1816 1481.7231,266.4805 L1481.7231,269.2031 Q1481.0923,268.6221 1480.4988,268.3523 Q1479.9053,268.0825 1479.2744,268.0825 Q1477.9297,268.0825 1477.2449,269.1492 Q1476.5601,270.2158 1476.5601,272.3159 Q1476.5601,274.4077 1477.2449,275.4744 Q1477.9297,276.541 1479.2744,276.541 Q1479.9053,276.541 1480.4988,276.2712 Q1481.0923,276.0015 1481.7231,275.4204 Z "/><text fill="#000000" font-family="sans-serif" font-size="12" lengthAdjust="spacingAndGlyphs" textLength="33" x="1499.75" y="276.5352">Room</text><line style="stroke: #A80036; stroke-width: 1.5;" x1="1350.5" x2="1649.5" y1="288" y2="288"/><line style="stroke: #A80036; stroke-width: 1.5;" x1="1350.5" x2="1649.5" y1="296" y2="296"/><ellipse cx="1360.5" cy="307.9775" fill="#84BE84" rx="3" ry="3" style="stroke: #038048; stroke-width: 1.0;"/><text fill="#000000" font-family="sans-serif" font-size="11" lengthAdjust="spacingAndGlyphs" textLength="131" x="1369.5" y="310.6348">Room(String, int, int, int)</text><ellipse cx="1360.5" cy="320.9326" fill="#84BE84" rx="3" ry="3" style="stroke: #038048; stroke-width: 1.0;"/><text fill="#000000" font-family="sans-serif" font-size="11" lengthAdjust="spacingAndGlyphs" textLength="100" x="1369.5" y="323.5898">getRoomID(): UUID</text><ellipse cx="1360.5" cy="333.8877" fill="#84BE84" rx="3" ry="3" style="stroke: #038048; stroke-width: 1.0;"/><text fill="#000000" font-family="sans-serif" font-size="11" lengthAdjust="spacingAndGlyphs" textLength="124" x="1369.5" y="336.5449">getRoomName(): String</text><ellipse cx="1360.5" cy="346.8428" fill="#84BE84" rx="3" ry="3" style="stroke: #038048; stroke-width: 1.0;"/><text fill="#000000" font-family="sans-serif" font-size="11" lengthAdjust="spacingAndGlyphs" textLength="91" x="1369.5" y="349.5">getCapacity(): int</text><ellipse cx="1360.5" cy="359.7979" fill="#84BE84" rx="3" ry="3" style="stroke: #038048; stroke-width: 1.0;"/><text fill="#000000" font-family="sans-serif" font-size="11" lengthAdjust="spacingAndGlyphs" textLength="275" x="1369.5" y="362.4551">checkRoomAvailability(LocalDateTime, int): boolean</text><ellipse cx="1360.5" cy="372.7529" fill="#84BE84" rx="3" ry="3" style="stroke: #038048; stroke-width: 1.0;"/><text fill="#000000" font-family="sans-serif" font-size="11" lengthAdjust="spacingAndGlyphs" textLength="226" x="1369.5" y="375.4102">bookRoom(LocalDateTime, UUID, int): void</text><ellipse cx="1360.5" cy="385.708" fill="#84BE84" rx="3" ry="3" style="stroke: #038048; stroke-width: 1.0;"/><text fill="#000000" font-family="sans-serif" font-size="11" lengthAdjust="spacingAndGlyphs" textLength="191" x="1369.5" y="388.3652">getFeatures(): List&lt;RoomFeatures&gt;</text><ellipse cx="1360.5" cy="398.6631" fill="#84BE84" rx="3" ry="3" style="stroke: #038048; stroke-width: 1.0;"/><text fill="#000000" font-family="sans-serif" font-size="11" lengthAdjust="spacingAndGlyphs" textLength="193" x="1369.5" y="401.3203">hasFeature(RoomFeatures): boolean</text><ellipse cx="1360.5" cy="411.6182" fill="#84BE84" rx="3" ry="3" style="stroke: #038048; stroke-width: 1.0;"/><text fill="#000000" font-family="sans-serif" font-size="11" lengthAdjust="spacingAndGlyphs" textLength="236" x="1369.5" y="414.2754">hasFeatures(List&lt;RoomFeatures&gt;): boolean</text><ellipse cx="1360.5" cy="424.5732" fill="#84BE84" rx="3" ry="3" style="stroke: #038048; stroke-width: 1.0;"/><text fill="#000000" font-family="sans-serif" font-size="11" lengthAdjust="spacingAndGlyphs" textLength="130" x="1369.5" y="427.2305">displayFeatures(): String</text><ellipse cx="1360.5" cy="437.5283" fill="#84BE84" rx="3" ry="3" style="stroke: #038048; stroke-width: 1.0;"/><text fill="#000000" font-family="sans-serif" font-size="11" lengthAdjust="spacingAndGlyphs" textLength="174" x="1369.5" y="440.1855">addFeature(RoomFeatures): void</text><ellipse cx="1360.5" cy="450.4834" fill="#84BE84" rx="3" ry="3" style="stroke: #038048; stroke-width: 1.0;"/><text fill="#000000" font-family="sans-serif" font-size="11" lengthAdjust="spacingAndGlyphs" textLength="194" x="1369.5" y="453.1406">removeFeature(RoomFeatures): void</text></a><!--class entities.Message--><a href="Message.html" target="_top" xlink:actuate="onRequest" xlink:show="new" xlink:title="Message.html" xlink:type="simple"><rect fill="#FEFECE" filter="url(#f91715yukf5y)" height="112.7754" id="entities.Message" style="stroke: #A80036; stroke-width: 1.5;" width="161" x="444.5" y="614"/><ellipse cx="495.75" cy="630" fill="#ADD1B2" rx="11" ry="11" style="stroke: #A80036; stroke-width: 1.0;"/><path d="M498.2231,636.1431 Q497.6421,636.4419 497.0029,636.5913 Q496.3638,636.7407 495.6582,636.7407 Q493.1514,636.7407 491.8315,635.0889 Q490.5117,633.437 490.5117,630.3159 Q490.5117,627.1865 491.8315,625.5347 Q493.1514,623.8828 495.6582,623.8828 Q496.3638,623.8828 497.0112,624.0322 Q497.6587,624.1816 498.2231,624.4805 L498.2231,627.2031 Q497.5923,626.6221 496.9988,626.3523 Q496.4053,626.0825 495.7744,626.0825 Q494.4297,626.0825 493.7449,627.1492 Q493.0601,628.2158 493.0601,630.3159 Q493.0601,632.4077 493.7449,633.4744 Q494.4297,634.541 495.7744,634.541 Q496.4053,634.541 496.9988,634.2712 Q497.5923,634.0015 498.2231,633.4204 Z "/><text fill="#000000" font-family="sans-serif" font-size="12" lengthAdjust="spacingAndGlyphs" textLength="50" x="516.25" y="634.5352">Message</text><line style="stroke: #A80036; stroke-width: 1.5;" x1="445.5" x2="604.5" y1="646" y2="646"/><line style="stroke: #A80036; stroke-width: 1.5;" x1="445.5" x2="604.5" y1="654" y2="654"/><ellipse cx="455.5" cy="665.9775" fill="#84BE84" rx="3" ry="3" style="stroke: #038048; stroke-width: 1.0;"/><text fill="#000000" font-family="sans-serif" font-size="11" lengthAdjust="spacingAndGlyphs" textLength="119" x="464.5" y="668.6348">Message(UUID, String)</text><ellipse cx="455.5" cy="678.9326" fill="#84BE84" rx="3" ry="3" style="stroke: #038048; stroke-width: 1.0;"/><text fill="#000000" font-family="sans-serif" font-size="11" lengthAdjust="spacingAndGlyphs" textLength="68" x="464.5" y="681.5898">getId(): UUID</text><ellipse cx="455.5" cy="691.8877" fill="#84BE84" rx="3" ry="3" style="stroke: #038048; stroke-width: 1.0;"/><text fill="#000000" font-family="sans-serif" font-size="11" lengthAdjust="spacingAndGlyphs" textLength="135" x="464.5" y="694.5449">getTime(): LocalDateTime</text><ellipse cx="455.5" cy="704.8428" fill="#84BE84" rx="3" ry="3" style="stroke: #038048; stroke-width: 1.0;"/><text fill="#000000" font-family="sans-serif" font-size="11" lengthAdjust="spacingAndGlyphs" textLength="105" x="464.5" y="707.5">getSenderId(): UUID</text><ellipse cx="455.5" cy="717.7979" fill="#84BE84" rx="3" ry="3" style="stroke: #038048; stroke-width: 1.0;"/><text fill="#000000" font-family="sans-serif" font-size="11" lengthAdjust="spacingAndGlyphs" textLength="106" x="464.5" y="720.4551">getContent(): String</text></a><!--class java.io.Serializable--><rect fill="#FEFECE" filter="url(#f91715yukf5y)" height="48" id="java.io.Serializable" style="stroke: #A80036; stroke-width: 1.5;" width="98" x="903" y="59"/><ellipse cx="918" cy="75" fill="#B4A7E5" rx="11" ry="11" style="stroke: #A80036; stroke-width: 1.0;"/><path d="M914.4277,71.2651 L914.4277,69.1069 L921.8071,69.1069 L921.8071,71.2651 L919.3418,71.2651 L919.3418,79.3418 L921.8071,79.3418 L921.8071,81.5 L914.4277,81.5 L914.4277,79.3418 L916.8931,79.3418 L916.8931,71.2651 Z "/><text fill="#000000" font-family="sans-serif" font-size="12" font-style="italic" lengthAdjust="spacingAndGlyphs" textLength="66" x="932" y="79.5352">Serializable</text><line style="stroke: #A80036; stroke-width: 1.5;" x1="904" x2="1000" y1="91" y2="91"/><line style="stroke: #A80036; stroke-width: 1.5;" x1="904" x2="1000" y1="99" y2="99"/><!--link java.io.Serializable to entities.Conversation--><path d="M882.51,83.33 C734.08,83.06 391.61,89.06 294,148 C241.44,179.73 205.08,240.25 183.1,287.95 " fill="none" id="java.io.Serializable-entities.Conversation" style="stroke: #A80036; stroke-width: 1.0; stroke-dasharray: 7.0,7.0;"/><polygon fill="none" points="882.57,76.33,902.54,83.4,882.51,90.33,882.57,76.33" style="stroke: #A80036; stroke-width: 1.0;"/><!--link java.io.Serializable to entities.Event--><path d="M882.98,91.33 C830.29,99.27 757.41,115.48 701,148 C680.16,160.01 660.03,174.75 641.07,190.78 " fill="none" id="java.io.Serializable-entities.Event" style="stroke: #A80036; stroke-width: 1.0; stroke-dasharray: 7.0,7.0;"/><polygon fill="none" points="882.03,84.39,902.8,88.58,883.95,98.26,882.03,84.39" style="stroke: #A80036; stroke-width: 1.0;"/><!--link java.io.Serializable to entities.UserRequest--><path d="M931.65,125.38 C910.46,168.48 876.9,236.73 851.73,287.91 " fill="none" id="java.io.Serializable-entities.UserRequest" style="stroke: #A80036; stroke-width: 1.0; stroke-dasharray: 7.0,7.0;"/><polygon fill="none" points="925.47,122.09,940.58,107.23,938.03,128.27,925.47,122.09" style="stroke: #A80036; stroke-width: 1.0;"/><!--link entities.User to entities.Vip--><path d="M1134,537.82 C1134,560.13 1134,581.77 1134,600.84 " fill="none" id="entities.User-entities.Vip" style="stroke: #A80036; stroke-width: 1.0;"/><polygon fill="none" points="1127,537.64,1134,517.64,1141,537.64,1127,537.64" style="stroke: #A80036; stroke-width: 1.0;"/><!--link java.io.Serializable to entities.User--><path d="M978.75,124.05 C992.25,144.26 1009.6,170.24 1027.79,197.47 " fill="none" id="java.io.Serializable-entities.User" style="stroke: #A80036; stroke-width: 1.0; stroke-dasharray: 7.0,7.0;"/><polygon fill="none" points="972.8,127.75,967.52,107.23,984.45,119.98,972.8,127.75" style="stroke: #A80036; stroke-width: 1.0;"/><!--link java.io.Serializable to entities.Room--><path d="M1021.3,89.76 C1116.14,98.63 1280.49,117.84 1332,148 C1376.23,173.9 1413.52,216.16 1441.65,255.89 " fill="none" id="java.io.Serializable-entities.Room" style="stroke: #A80036; stroke-width: 1.0; stroke-dasharray: 7.0,7.0;"/><polygon fill="none" points="1020.62,96.72,1001.33,87.95,1021.88,82.78,1020.62,96.72" style="stroke: #A80036; stroke-width: 1.0;"/><!--link java.io.Serializable to entities.Message--><path d="M1021.21,85 C1192.38,88.18 1624.87,100.84 1668,148 C1780.78,271.31 1779.3,399.35 1668,524 C1567.01,637.11 1140.36,581.39 990,601 C854.87,618.62 698.16,642.4 605.53,656.81 " fill="none" id="java.io.Serializable-entities.Message" style="stroke: #A80036; stroke-width: 1.0; stroke-dasharray: 7.0,7.0;"/><polygon fill="none" points="1021.08,92,1001.2,84.65,1021.32,78,1021.08,92" style="stroke: #A80036; stroke-width: 1.0;"/><!--link entities.Conversation to entities.Message--><path d="M205.94,427.23 C230.31,458.79 261.49,495.45 294,524 C338.42,563.01 394.39,598.55 440.11,624.73 " fill="none" id="entities.Conversation-entities.Message" style="stroke: #A80036; stroke-width: 1.0;"/><polygon fill="#A80036" points="444.5,627.24,438.6563,619.3121,440.1544,624.767,434.6995,626.2651,444.5,627.24" style="stroke: #A80036; stroke-width: 1.0;"/><text fill="#000000" font-family="sans-serif" font-size="13" lengthAdjust="spacingAndGlyphs" textLength="78" x="354" y="567.5684">messageList</text><text fill="#000000" font-family="sans-serif" font-size="13" lengthAdjust="spacingAndGlyphs" textLength="6" x="430.5414" y="619.9958">*</text><text fill="#888888" font-family="sans-serif" font-size="10" lengthAdjust="spacingAndGlyphs" textLength="182" x="794" y="791.668">UMLDoclet 1.1.4, PlantUML 1.2019.05</text><!--
@startuml

    namespace entities {

        class Conversation [[Conversation.html]] {
            +Conversation(List<UUID>, ConvoType)
            +addMessage(Message): void
            +getId(): UUID
            +getParticipants(): List<UUID>
            +getType(): ConvoType
            +setEventName(String): void
            +getEventName(): String
        }

        class Event [[Event.html]] {
            +Event(String, LocalDateTime, UUID, int, int, List<RoomFeatures>)
            +getEventId(): UUID
            +getEventName(): String
            +getSpeakers(): HashSet<UUID>
            +addSpeaker(UUID): void
            +addSpeaker(HashSet<UUID>): void
            +removeSpeaker(UUID): void
            +getEventRoom(): UUID
            +getAttendees(): Set<UUID>
            +addAttendee(UUID): void
            +removeAttendee(UUID): void
            +getEventSchedule(): String
            +getEventString(): String
            +getEventDateAndTime(): LocalDateTime
            +isUserSignedUp(UUID): boolean
            +getCapacity(): int
            +setCapacity(int): void
            +getEventType(): String
            +displayFeatures(): String
            +hasFeature(RoomFeatures): boolean
            +addFeature(RoomFeatures): void
            +removeFeature(RoomFeatures): void
        }

        class UserRequest [[UserRequest.html]] {
            +UserRequest(UUID, String, UUID)
            +getIsAddressed(): boolean
            +getSenderId(): UUID
            +getAssociatedEventId(): UUID
            +getContent(): String
            +getId(): UUID
            +setIsAddressed(boolean): void
        }

        class Vip [[Vip.html]] {
            +Vip(String, String, String)
            +interestedInEventId(UUID): void
            +uninterestedInEventId(UUID): void
            +getInterestedEventsIds(): HashSet<UUID>
            +likeSpeakerById(UUID): void
            +dislikeSpeakerById(UUID): void
            +getFavouriteSpeakersId(): HashSet<UUID>
        }

        class User [[User.html]] {
            +User(String, String, String, UserType)
            +getType(): UserType
            +setType(UserType): void
            +setName(String): void
            +getEventsList(): ArrayList<UUID>
            +getFriendsList(): ArrayList<UUID>
            +getConversationList(): ArrayList<UUID>
            +getUnreadConversationsList(): ArrayList<UUID>
            +getArchivedConversationsList(): HashMap<UUID, Integer>
            +getDeletedConversationsList(): HashMap<UUID, Integer>
            +getName(): String
            +getId(): UUID
            +getPassword(): String
            +getEmail(): String
            +addToFriendsList(UUID): void
            +removeFromFriendsList(UUID): void
            +addToEventsList(UUID): void
            +removeFromEventsList(UUID): void
            +addToConversationsList(UUID): void
            +removeFromConversationsList(UUID): void
            +addToHashMap(HashMap<UUID, Integer>, UUID, Integer): void
        }

        class Room [[Room.html]] {
            +Room(String, int, int, int)
            +getRoomID(): UUID
            +getRoomName(): String
            +getCapacity(): int
            +checkRoomAvailability(LocalDateTime, int): boolean
            +bookRoom(LocalDateTime, UUID, int): void
            +getFeatures(): List<RoomFeatures>
            +hasFeature(RoomFeatures): boolean
            +hasFeatures(List<RoomFeatures>): boolean
            +displayFeatures(): String
            +addFeature(RoomFeatures): void
            +removeFeature(RoomFeatures): void
        }

        class Message [[Message.html]] {
            +Message(UUID, String)
            +getId(): UUID
            +getTime(): LocalDateTime
            +getSenderId(): UUID
            +getContent(): String
        }

        interface java.io.Serializable
        java.io.Serializable <|.. Conversation

        java.io.Serializable <|.. Event

        java.io.Serializable <|.. UserRequest

        User <|- - Vip

        java.io.Serializable <|.. User

        java.io.Serializable <|.. Room

        java.io.Serializable <|.. Message

        Conversation - -> "*" Message: messageList

    }


    center footer UMLDoclet 1.1.4, PlantUML 1.2019.05
@enduml

PlantUML version 1.2019.05(Sat Apr 20 12:45:36 EDT 2019)
(APACHE source distribution)
Java Runtime: Java(TM) SE Runtime Environment
JVM: Java HotSpot(TM) 64-Bit Server VM
Java Version: 1.8.0_261-b12
Operating System: Mac OS X
OS Version: 10.16
Default Encoding: UTF-8
Language: en
Country: CA
--></g></svg>