<?xml version="1.0" encoding="UTF-8" standalone="no"?><svg xmlns="http://www.w3.org/2000/svg" xmlns:xlink="http://www.w3.org/1999/xlink" contentScriptType="application/ecmascript" contentStyleType="text/css" height="244px" preserveAspectRatio="none" style="width:318px;height:244px;" version="1.1" viewBox="0 0 318 244" width="318px" zoomAndPan="magnify"><defs><filter height="300%" id="fd2zg4yfegllx" width="300%" x="-1" y="-1"><feGaussianBlur result="blurOut" stdDeviation="2.0"/><feColorMatrix in="blurOut" result="blurOut2" type="matrix" values="0 0 0 0 0 0 0 0 0 0 0 0 0 0 0 0 0 0 .4 0"/><feOffset dx="4.0" dy="4.0" in="blurOut2" result="blurOut3"/><feBlend in="SourceGraphic" in2="blurOut3" mode="normal"/></filter></defs><g><!--class Room--><a href="Room.html" target="_top" xlink:actuate="onRequest" xlink:show="new" xlink:title="Room.html" xlink:type="simple"><rect fill="#FEFECE" filter="url(#fd2zg4yfegllx)" height="203.4609" id="Room" style="stroke: #A80036; stroke-width: 1.5;" width="301" x="6" y="8"/><ellipse cx="135.75" cy="24" fill="#ADD1B2" rx="11" ry="11" style="stroke: #A80036; stroke-width: 1.0;"/><path d="M138.2231,30.1431 Q137.6421,30.4419 137.0029,30.5913 Q136.3638,30.7407 135.6582,30.7407 Q133.1514,30.7407 131.8315,29.0889 Q130.5117,27.437 130.5117,24.3159 Q130.5117,21.1865 131.8315,19.5347 Q133.1514,17.8828 135.6582,17.8828 Q136.3638,17.8828 137.0112,18.0322 Q137.6587,18.1816 138.2231,18.4805 L138.2231,21.2031 Q137.5923,20.6221 136.9988,20.3523 Q136.4053,20.0825 135.7744,20.0825 Q134.4297,20.0825 133.7449,21.1492 Q133.0601,22.2158 133.0601,24.3159 Q133.0601,26.4077 133.7449,27.4744 Q134.4297,28.541 135.7744,28.541 Q136.4053,28.541 136.9988,28.2712 Q137.5923,28.0015 138.2231,27.4204 Z "/><text fill="#000000" font-family="sans-serif" font-size="12" lengthAdjust="spacingAndGlyphs" textLength="33" x="156.25" y="28.5352">Room</text><line style="stroke: #A80036; stroke-width: 1.5;" x1="7" x2="306" y1="40" y2="40"/><line style="stroke: #A80036; stroke-width: 1.5;" x1="7" x2="306" y1="48" y2="48"/><ellipse cx="17" cy="59.9775" fill="#84BE84" rx="3" ry="3" style="stroke: #038048; stroke-width: 1.0;"/><text fill="#000000" font-family="sans-serif" font-size="11" lengthAdjust="spacingAndGlyphs" textLength="131" x="26" y="62.6348">Room(String, int, int, int)</text><ellipse cx="17" cy="72.9326" fill="#84BE84" rx="3" ry="3" style="stroke: #038048; stroke-width: 1.0;"/><text fill="#000000" font-family="sans-serif" font-size="11" lengthAdjust="spacingAndGlyphs" textLength="100" x="26" y="75.5898">getRoomID(): UUID</text><ellipse cx="17" cy="85.8877" fill="#84BE84" rx="3" ry="3" style="stroke: #038048; stroke-width: 1.0;"/><text fill="#000000" font-family="sans-serif" font-size="11" lengthAdjust="spacingAndGlyphs" textLength="124" x="26" y="88.5449">getRoomName(): String</text><ellipse cx="17" cy="98.8428" fill="#84BE84" rx="3" ry="3" style="stroke: #038048; stroke-width: 1.0;"/><text fill="#000000" font-family="sans-serif" font-size="11" lengthAdjust="spacingAndGlyphs" textLength="91" x="26" y="101.5">getCapacity(): int</text><ellipse cx="17" cy="111.7979" fill="#84BE84" rx="3" ry="3" style="stroke: #038048; stroke-width: 1.0;"/><text fill="#000000" font-family="sans-serif" font-size="11" lengthAdjust="spacingAndGlyphs" textLength="275" x="26" y="114.4551">checkRoomAvailability(LocalDateTime, int): boolean</text><ellipse cx="17" cy="124.7529" fill="#84BE84" rx="3" ry="3" style="stroke: #038048; stroke-width: 1.0;"/><text fill="#000000" font-family="sans-serif" font-size="11" lengthAdjust="spacingAndGlyphs" textLength="226" x="26" y="127.4102">bookRoom(LocalDateTime, UUID, int): void</text><ellipse cx="17" cy="137.708" fill="#84BE84" rx="3" ry="3" style="stroke: #038048; stroke-width: 1.0;"/><text fill="#000000" font-family="sans-serif" font-size="11" lengthAdjust="spacingAndGlyphs" textLength="191" x="26" y="140.3652">getFeatures(): List&lt;RoomFeatures&gt;</text><ellipse cx="17" cy="150.6631" fill="#84BE84" rx="3" ry="3" style="stroke: #038048; stroke-width: 1.0;"/><text fill="#000000" font-family="sans-serif" font-size="11" lengthAdjust="spacingAndGlyphs" textLength="193" x="26" y="153.3203">hasFeature(RoomFeatures): boolean</text><ellipse cx="17" cy="163.6182" fill="#84BE84" rx="3" ry="3" style="stroke: #038048; stroke-width: 1.0;"/><text fill="#000000" font-family="sans-serif" font-size="11" lengthAdjust="spacingAndGlyphs" textLength="236" x="26" y="166.2754">hasFeatures(List&lt;RoomFeatures&gt;): boolean</text><ellipse cx="17" cy="176.5732" fill="#84BE84" rx="3" ry="3" style="stroke: #038048; stroke-width: 1.0;"/><text fill="#000000" font-family="sans-serif" font-size="11" lengthAdjust="spacingAndGlyphs" textLength="130" x="26" y="179.2305">displayFeatures(): String</text><ellipse cx="17" cy="189.5283" fill="#84BE84" rx="3" ry="3" style="stroke: #038048; stroke-width: 1.0;"/><text fill="#000000" font-family="sans-serif" font-size="11" lengthAdjust="spacingAndGlyphs" textLength="174" x="26" y="192.1855">addFeature(RoomFeatures): void</text><ellipse cx="17" cy="202.4834" fill="#84BE84" rx="3" ry="3" style="stroke: #038048; stroke-width: 1.0;"/><text fill="#000000" font-family="sans-serif" font-size="11" lengthAdjust="spacingAndGlyphs" textLength="194" x="26" y="205.1406">removeFeature(RoomFeatures): void</text></a><text fill="#888888" font-family="sans-serif" font-size="10" lengthAdjust="spacingAndGlyphs" textLength="182" x="71.5" y="230.668">UMLDoclet 1.1.4, PlantUML 1.2019.05</text><!--
@startuml

    class Room [[Room.html]] {
        +Room(String, int, int, int)
        +getRoomID(): UUID
        +getRoomName(): String
        +getCapacity(): int
        +checkRoomAvailability(LocalDateTime, int): boolean
        +bookRoom(LocalDateTime, UUID, int): void
        +getFeatures(): List<RoomFeatures>
        +hasFeature(RoomFeatures): boolean
        +hasFeatures(List<RoomFeatures>): boolean
        +displayFeatures(): String
        +addFeature(RoomFeatures): void
        +removeFeature(RoomFeatures): void
    }


    center footer UMLDoclet 1.1.4, PlantUML 1.2019.05
@enduml

PlantUML version 1.2019.05(Sat Apr 20 12:45:36 EDT 2019)
(APACHE source distribution)
Java Runtime: Java(TM) SE Runtime Environment
JVM: Java HotSpot(TM) 64-Bit Server VM
Java Version: 1.8.0_261-b12
Operating System: Mac OS X
OS Version: 10.16
Default Encoding: UTF-8
Language: en
Country: CA
--></g></svg>