<?xml version="1.0" encoding="UTF-8" standalone="no"?><svg xmlns="http://www.w3.org/2000/svg" xmlns:xlink="http://www.w3.org/1999/xlink" contentScriptType="application/ecmascript" contentStyleType="text/css" height="180px" preserveAspectRatio="none" style="width:217px;height:180px;" version="1.1" viewBox="0 0 217 180" width="217px" zoomAndPan="magnify"><defs><filter height="300%" id="f1g95nhsgldfy4" width="300%" x="-1" y="-1"><feGaussianBlur result="blurOut" stdDeviation="2.0"/><feColorMatrix in="blurOut" result="blurOut2" type="matrix" values="0 0 0 0 0 0 0 0 0 0 0 0 0 0 0 0 0 0 .4 0"/><feOffset dx="4.0" dy="4.0" in="blurOut2" result="blurOut3"/><feBlend in="SourceGraphic" in2="blurOut3" mode="normal"/></filter></defs><g><!--class UserRequest--><a href="UserRequest.html" target="_top" xlink:actuate="onRequest" xlink:show="new" xlink:title="UserRequest.html" xlink:type="simple"><rect fill="#FEFECE" filter="url(#f1g95nhsgldfy4)" height="138.6855" id="UserRequest" style="stroke: #A80036; stroke-width: 1.5;" width="200" x="6" y="8"/><ellipse cx="65.25" cy="24" fill="#ADD1B2" rx="11" ry="11" style="stroke: #A80036; stroke-width: 1.0;"/><path d="M67.7231,30.1431 Q67.1421,30.4419 66.5029,30.5913 Q65.8638,30.7407 65.1582,30.7407 Q62.6514,30.7407 61.3315,29.0889 Q60.0117,27.437 60.0117,24.3159 Q60.0117,21.1865 61.3315,19.5347 Q62.6514,17.8828 65.1582,17.8828 Q65.8638,17.8828 66.5112,18.0322 Q67.1587,18.1816 67.7231,18.4805 L67.7231,21.2031 Q67.0923,20.6221 66.4988,20.3523 Q65.9053,20.0825 65.2744,20.0825 Q63.9297,20.0825 63.2449,21.1492 Q62.5601,22.2158 62.5601,24.3159 Q62.5601,26.4077 63.2449,27.4744 Q63.9297,28.541 65.2744,28.541 Q65.9053,28.541 66.4988,28.2712 Q67.0923,28.0015 67.7231,27.4204 Z "/><text fill="#000000" font-family="sans-serif" font-size="12" lengthAdjust="spacingAndGlyphs" textLength="73" x="85.75" y="28.5352">UserRequest</text><line style="stroke: #A80036; stroke-width: 1.5;" x1="7" x2="205" y1="40" y2="40"/><line style="stroke: #A80036; stroke-width: 1.5;" x1="7" x2="205" y1="48" y2="48"/><ellipse cx="17" cy="59.9775" fill="#84BE84" rx="3" ry="3" style="stroke: #038048; stroke-width: 1.0;"/><text fill="#000000" font-family="sans-serif" font-size="11" lengthAdjust="spacingAndGlyphs" textLength="174" x="26" y="62.6348">UserRequest(UUID, String, UUID)</text><ellipse cx="17" cy="72.9326" fill="#84BE84" rx="3" ry="3" style="stroke: #038048; stroke-width: 1.0;"/><text fill="#000000" font-family="sans-serif" font-size="11" lengthAdjust="spacingAndGlyphs" textLength="141" x="26" y="75.5898">getIsAddressed(): boolean</text><ellipse cx="17" cy="85.8877" fill="#84BE84" rx="3" ry="3" style="stroke: #038048; stroke-width: 1.0;"/><text fill="#000000" font-family="sans-serif" font-size="11" lengthAdjust="spacingAndGlyphs" textLength="105" x="26" y="88.5449">getSenderId(): UUID</text><ellipse cx="17" cy="98.8428" fill="#84BE84" rx="3" ry="3" style="stroke: #038048; stroke-width: 1.0;"/><text fill="#000000" font-family="sans-serif" font-size="11" lengthAdjust="spacingAndGlyphs" textLength="156" x="26" y="101.5">getAssociatedEventId(): UUID</text><ellipse cx="17" cy="111.7979" fill="#84BE84" rx="3" ry="3" style="stroke: #038048; stroke-width: 1.0;"/><text fill="#000000" font-family="sans-serif" font-size="11" lengthAdjust="spacingAndGlyphs" textLength="106" x="26" y="114.4551">getContent(): String</text><ellipse cx="17" cy="124.7529" fill="#84BE84" rx="3" ry="3" style="stroke: #038048; stroke-width: 1.0;"/><text fill="#000000" font-family="sans-serif" font-size="11" lengthAdjust="spacingAndGlyphs" textLength="68" x="26" y="127.4102">getId(): UUID</text><ellipse cx="17" cy="137.708" fill="#84BE84" rx="3" ry="3" style="stroke: #038048; stroke-width: 1.0;"/><text fill="#000000" font-family="sans-serif" font-size="11" lengthAdjust="spacingAndGlyphs" textLength="163" x="26" y="140.3652">setIsAddressed(boolean): void</text></a><text fill="#888888" font-family="sans-serif" font-size="10" lengthAdjust="spacingAndGlyphs" textLength="182" x="21" y="166.668">UMLDoclet 1.1.4, PlantUML 1.2019.05</text><!--
@startuml

    class UserRequest [[UserRequest.html]] {
        +UserRequest(UUID, String, UUID)
        +getIsAddressed(): boolean
        +getSenderId(): UUID
        +getAssociatedEventId(): UUID
        +getContent(): String
        +getId(): UUID
        +setIsAddressed(boolean): void
    }


    center footer UMLDoclet 1.1.4, PlantUML 1.2019.05
@enduml

PlantUML version 1.2019.05(Sat Apr 20 12:45:36 EDT 2019)
(APACHE source distribution)
Java Runtime: Java(TM) SE Runtime Environment
JVM: Java HotSpot(TM) 64-Bit Server VM
Java Version: 1.8.0_261-b12
Operating System: Mac OS X
OS Version: 10.16
Default Encoding: UTF-8
Language: en
Country: CA
--></g></svg>