<?xml version="1.0" encoding="UTF-8" standalone="no"?><svg xmlns="http://www.w3.org/2000/svg" xmlns:xlink="http://www.w3.org/1999/xlink" contentScriptType="application/ecmascript" contentStyleType="text/css" height="180px" preserveAspectRatio="none" style="width:270px;height:180px;" version="1.1" viewBox="0 0 270 180" width="270px" zoomAndPan="magnify"><defs><filter height="300%" id="f1vhmurgwa3uo9" width="300%" x="-1" y="-1"><feGaussianBlur result="blurOut" stdDeviation="2.0"/><feColorMatrix in="blurOut" result="blurOut2" type="matrix" values="0 0 0 0 0 0 0 0 0 0 0 0 0 0 0 0 0 0 .4 0"/><feOffset dx="4.0" dy="4.0" in="blurOut2" result="blurOut3"/><feBlend in="SourceGraphic" in2="blurOut3" mode="normal"/></filter></defs><g><!--class Vip--><a href="Vip.html" target="_top" xlink:actuate="onRequest" xlink:show="new" xlink:title="Vip.html" xlink:type="simple"><rect fill="#FEFECE" filter="url(#f1vhmurgwa3uo9)" height="138.6855" id="Vip" style="stroke: #A80036; stroke-width: 1.5;" width="253" x="6" y="8"/><ellipse cx="118.75" cy="24" fill="#ADD1B2" rx="11" ry="11" style="stroke: #A80036; stroke-width: 1.0;"/><path d="M121.2231,30.1431 Q120.6421,30.4419 120.0029,30.5913 Q119.3638,30.7407 118.6582,30.7407 Q116.1514,30.7407 114.8315,29.0889 Q113.5117,27.437 113.5117,24.3159 Q113.5117,21.1865 114.8315,19.5347 Q116.1514,17.8828 118.6582,17.8828 Q119.3638,17.8828 120.0112,18.0322 Q120.6587,18.1816 121.2231,18.4805 L121.2231,21.2031 Q120.5923,20.6221 119.9988,20.3523 Q119.4053,20.0825 118.7744,20.0825 Q117.4297,20.0825 116.7449,21.1492 Q116.0601,22.2158 116.0601,24.3159 Q116.0601,26.4077 116.7449,27.4744 Q117.4297,28.541 118.7744,28.541 Q119.4053,28.541 119.9988,28.2712 Q120.5923,28.0015 121.2231,27.4204 Z "/><text fill="#000000" font-family="sans-serif" font-size="12" lengthAdjust="spacingAndGlyphs" textLength="19" x="139.25" y="28.5352">Vip</text><line style="stroke: #A80036; stroke-width: 1.5;" x1="7" x2="258" y1="40" y2="40"/><line style="stroke: #A80036; stroke-width: 1.5;" x1="7" x2="258" y1="48" y2="48"/><ellipse cx="17" cy="59.9775" fill="#84BE84" rx="3" ry="3" style="stroke: #038048; stroke-width: 1.0;"/><text fill="#000000" font-family="sans-serif" font-size="11" lengthAdjust="spacingAndGlyphs" textLength="133" x="26" y="62.6348">Vip(String, String, String)</text><ellipse cx="17" cy="72.9326" fill="#84BE84" rx="3" ry="3" style="stroke: #038048; stroke-width: 1.0;"/><text fill="#000000" font-family="sans-serif" font-size="11" lengthAdjust="spacingAndGlyphs" textLength="167" x="26" y="75.5898">interestedInEventId(UUID): void</text><ellipse cx="17" cy="85.8877" fill="#84BE84" rx="3" ry="3" style="stroke: #038048; stroke-width: 1.0;"/><text fill="#000000" font-family="sans-serif" font-size="11" lengthAdjust="spacingAndGlyphs" textLength="181" x="26" y="88.5449">uninterestedInEventId(UUID): void</text><ellipse cx="17" cy="98.8428" fill="#84BE84" rx="3" ry="3" style="stroke: #038048; stroke-width: 1.0;"/><text fill="#000000" font-family="sans-serif" font-size="11" lengthAdjust="spacingAndGlyphs" textLength="224" x="26" y="101.5">getInterestedEventsIds(): HashSet&lt;UUID&gt;</text><ellipse cx="17" cy="111.7979" fill="#84BE84" rx="3" ry="3" style="stroke: #038048; stroke-width: 1.0;"/><text fill="#000000" font-family="sans-serif" font-size="11" lengthAdjust="spacingAndGlyphs" textLength="146" x="26" y="114.4551">likeSpeakerById(UUID): void</text><ellipse cx="17" cy="124.7529" fill="#84BE84" rx="3" ry="3" style="stroke: #038048; stroke-width: 1.0;"/><text fill="#000000" font-family="sans-serif" font-size="11" lengthAdjust="spacingAndGlyphs" textLength="162" x="26" y="127.4102">dislikeSpeakerById(UUID): void</text><ellipse cx="17" cy="137.708" fill="#84BE84" rx="3" ry="3" style="stroke: #038048; stroke-width: 1.0;"/><text fill="#000000" font-family="sans-serif" font-size="11" lengthAdjust="spacingAndGlyphs" textLength="227" x="26" y="140.3652">getFavouriteSpeakersId(): HashSet&lt;UUID&gt;</text></a><text fill="#888888" font-family="sans-serif" font-size="10" lengthAdjust="spacingAndGlyphs" textLength="182" x="47.5" y="166.668">UMLDoclet 1.1.4, PlantUML 1.2019.05</text><!--
@startuml

    class Vip [[Vip.html]] {
        +Vip(String, String, String)
        +interestedInEventId(UUID): void
        +uninterestedInEventId(UUID): void
        +getInterestedEventsIds(): HashSet<UUID>
        +likeSpeakerById(UUID): void
        +dislikeSpeakerById(UUID): void
        +getFavouriteSpeakersId(): HashSet<UUID>
    }


    center footer UMLDoclet 1.1.4, PlantUML 1.2019.05
@enduml

PlantUML version 1.2019.05(Sat Apr 20 12:45:36 EDT 2019)
(APACHE source distribution)
Java Runtime: Java(TM) SE Runtime Environment
JVM: Java HotSpot(TM) 64-Bit Server VM
Java Version: 1.8.0_261-b12
Operating System: Mac OS X
OS Version: 10.16
Default Encoding: UTF-8
Language: en
Country: CA
--></g></svg>