<?xml version="1.0" encoding="UTF-8" standalone="no"?><svg xmlns="http://www.w3.org/2000/svg" xmlns:xlink="http://www.w3.org/1999/xlink" contentScriptType="application/ecmascript" contentStyleType="text/css" height="760px" preserveAspectRatio="none" style="width:1978px;height:760px;" version="1.1" viewBox="0 0 1978 760" width="1978px" zoomAndPan="magnify"><defs><filter height="300%" id="ft2nna1u77uco" width="300%" x="-1" y="-1"><feGaussianBlur result="blurOut" stdDeviation="2.0"/><feColorMatrix in="blurOut" result="blurOut2" type="matrix" values="0 0 0 0 0 0 0 0 0 0 0 0 0 0 0 0 0 0 .4 0"/><feOffset dx="4.0" dy="4.0" in="blurOut2" result="blurOut3"/><feBlend in="SourceGraphic" in2="blurOut3" mode="normal"/></filter></defs><g><!--cluster controllers--><polygon fill="#FFFFFF" filter="url(#ft2nna1u77uco)" points="22,24,106,24,113,46.4883,1956,46.4883,1956,711,22,711,22,24" style="stroke: #000000; stroke-width: 1.5;"/><line style="stroke: #000000; stroke-width: 1.5;" x1="22" x2="113" y1="46.4883" y2="46.4883"/><text fill="#000000" font-family="sans-serif" font-size="14" font-weight="bold" lengthAdjust="spacingAndGlyphs" textLength="78" x="26" y="39.5352">controllers</text><!--class controllers.UserController--><a href="UserController.html" target="_top" xlink:actuate="onRequest" xlink:show="new" xlink:title="UserController.html" xlink:type="simple"><rect fill="#FEFECE" filter="url(#ft2nna1u77uco)" height="397.7871" id="controllers.UserController" style="stroke: #A80036; stroke-width: 1.5;" width="555" x="1022.5" y="59"/><ellipse cx="1254.75" cy="75" fill="#ADD1B2" rx="11" ry="11" style="stroke: #A80036; stroke-width: 1.0;"/><path d="M1257.2231,81.1431 Q1256.6421,81.4419 1256.0029,81.5913 Q1255.3638,81.7407 1254.6582,81.7407 Q1252.1514,81.7407 1250.8315,80.0889 Q1249.5117,78.437 1249.5117,75.3159 Q1249.5117,72.1865 1250.8315,70.5347 Q1252.1514,68.8828 1254.6582,68.8828 Q1255.3638,68.8828 1256.0112,69.0322 Q1256.6587,69.1816 1257.2231,69.4805 L1257.2231,72.2031 Q1256.5923,71.6221 1255.9988,71.3523 Q1255.4053,71.0825 1254.7744,71.0825 Q1253.4297,71.0825 1252.7449,72.1492 Q1252.0601,73.2158 1252.0601,75.3159 Q1252.0601,77.4077 1252.7449,78.4744 Q1253.4297,79.541 1254.7744,79.541 Q1255.4053,79.541 1255.9988,79.2712 Q1256.5923,79.0015 1257.2231,78.4204 Z "/><text fill="#000000" font-family="sans-serif" font-size="12" lengthAdjust="spacingAndGlyphs" textLength="82" x="1275.25" y="79.5352">UserController</text><line style="stroke: #A80036; stroke-width: 1.5;" x1="1023.5" x2="1576.5" y1="91" y2="91"/><line style="stroke: #A80036; stroke-width: 1.5;" x1="1023.5" x2="1576.5" y1="99" y2="99"/><ellipse cx="1033.5" cy="110.9775" fill="#84BE84" rx="3" ry="3" style="stroke: #038048; stroke-width: 1.0;"/><text fill="#000000" font-family="sans-serif" font-size="11" lengthAdjust="spacingAndGlyphs" textLength="269" x="1042.5" y="113.6348">getUserOptions(UserManager): List&lt;UserOption&gt;</text><ellipse cx="1033.5" cy="123.9326" fill="#84BE84" rx="3" ry="3" style="stroke: #038048; stroke-width: 1.0;"/><text fill="#000000" font-family="sans-serif" font-size="11" lengthAdjust="spacingAndGlyphs" textLength="197" x="1042.5" y="126.5898">loginAsAGuest(UserManager): String</text><ellipse cx="1033.5" cy="136.8877" fill="#84BE84" rx="3" ry="3" style="stroke: #038048; stroke-width: 1.0;"/><text fill="#000000" font-family="sans-serif" font-size="11" lengthAdjust="spacingAndGlyphs" textLength="231" x="1042.5" y="139.5449">login(UserManager, String, String): boolean</text><ellipse cx="1033.5" cy="149.8428" fill="#84BE84" rx="3" ry="3" style="stroke: #038048; stroke-width: 1.0;"/><text fill="#000000" font-family="sans-serif" font-size="11" lengthAdjust="spacingAndGlyphs" textLength="143" x="1042.5" y="152.5">logout(UserManager): void</text><ellipse cx="1033.5" cy="162.7979" fill="#84BE84" rx="3" ry="3" style="stroke: #038048; stroke-width: 1.0;"/><text fill="#000000" font-family="sans-serif" font-size="11" lengthAdjust="spacingAndGlyphs" textLength="529" x="1042.5" y="165.4551">sendMessage(UserManager, ConversationManager, String, ArrayList&lt;Integer&gt;, ConvoType): String</text><ellipse cx="1033.5" cy="175.7529" fill="#84BE84" rx="3" ry="3" style="stroke: #038048; stroke-width: 1.0;"/><text fill="#000000" font-family="sans-serif" font-size="11" lengthAdjust="spacingAndGlyphs" textLength="412" x="1042.5" y="178.4102">replyToConversation(ConversationManager, UserManager, String, int): String</text><ellipse cx="1033.5" cy="188.708" fill="#84BE84" rx="3" ry="3" style="stroke: #038048; stroke-width: 1.0;"/><text fill="#000000" font-family="sans-serif" font-size="11" lengthAdjust="spacingAndGlyphs" textLength="376" x="1042.5" y="191.3652">deleteConversation(ConversationManager, UserManager, int, int): void</text><ellipse cx="1033.5" cy="201.6631" fill="#84BE84" rx="3" ry="3" style="stroke: #038048; stroke-width: 1.0;"/><text fill="#000000" font-family="sans-serif" font-size="11" lengthAdjust="spacingAndGlyphs" textLength="383" x="1042.5" y="204.3203">archiveConversation(ConversationManager, UserManager, int, int): void</text><ellipse cx="1033.5" cy="214.6182" fill="#84BE84" rx="3" ry="3" style="stroke: #038048; stroke-width: 1.0;"/><text fill="#000000" font-family="sans-serif" font-size="11" lengthAdjust="spacingAndGlyphs" textLength="404" x="1042.5" y="217.2754">markConversationAsUnread(ConversationManager, UserManager, int): void</text><ellipse cx="1033.5" cy="227.5732" fill="#84BE84" rx="3" ry="3" style="stroke: #038048; stroke-width: 1.0;"/><text fill="#000000" font-family="sans-serif" font-size="11" lengthAdjust="spacingAndGlyphs" textLength="401" x="1042.5" y="230.2305">signUpToEvent(UserManager, EventsManager, RoomManager, UUID): String</text><ellipse cx="1033.5" cy="240.5283" fill="#84BE84" rx="3" ry="3" style="stroke: #038048; stroke-width: 1.0;"/><text fill="#000000" font-family="sans-serif" font-size="11" lengthAdjust="spacingAndGlyphs" textLength="327" x="1042.5" y="243.1855">disEnrollToEvent(UserManager, EventsManager, UUID): String</text><ellipse cx="1033.5" cy="253.4834" fill="#84BE84" rx="3" ry="3" style="stroke: #038048; stroke-width: 1.0;"/><text fill="#000000" font-family="sans-serif" font-size="11" lengthAdjust="spacingAndGlyphs" textLength="235" x="1042.5" y="256.1406">getAllEventIds(EventsManager): List&lt;UUID&gt;</text><ellipse cx="1033.5" cy="266.4385" fill="#84BE84" rx="3" ry="3" style="stroke: #038048; stroke-width: 1.0;"/><text fill="#000000" font-family="sans-serif" font-size="11" lengthAdjust="spacingAndGlyphs" textLength="227" x="1042.5" y="269.0957">getAllEvents(EventsManager): List&lt;Event&gt;</text><ellipse cx="1033.5" cy="279.3936" fill="#84BE84" rx="3" ry="3" style="stroke: #038048; stroke-width: 1.0;"/><text fill="#000000" font-family="sans-serif" font-size="11" lengthAdjust="spacingAndGlyphs" textLength="257" x="1042.5" y="282.0508">getSpeakers(EventsManager, UUID): List&lt;UUID&gt;</text><ellipse cx="1033.5" cy="292.3486" fill="#84BE84" rx="3" ry="3" style="stroke: #038048; stroke-width: 1.0;"/><text fill="#000000" font-family="sans-serif" font-size="11" lengthAdjust="spacingAndGlyphs" textLength="358" x="1042.5" y="295.0059">viewEventsByDay(EventsManager, RoomManager, LocalDate): String</text><ellipse cx="1033.5" cy="305.3037" fill="#84BE84" rx="3" ry="3" style="stroke: #038048; stroke-width: 1.0;"/><text fill="#000000" font-family="sans-serif" font-size="11" lengthAdjust="spacingAndGlyphs" textLength="342" x="1042.5" y="307.9609">viewConversations(UserManager, ConversationManager): String</text><ellipse cx="1033.5" cy="318.2588" fill="#84BE84" rx="3" ry="3" style="stroke: #038048; stroke-width: 1.0;"/><text fill="#000000" font-family="sans-serif" font-size="11" lengthAdjust="spacingAndGlyphs" textLength="336" x="1042.5" y="320.916">viewMessages(UserManager, ConversationManager, int): String</text><ellipse cx="1033.5" cy="331.2139" fill="#84BE84" rx="3" ry="3" style="stroke: #038048; stroke-width: 1.0;"/><text fill="#000000" font-family="sans-serif" font-size="11" lengthAdjust="spacingAndGlyphs" textLength="194" x="1042.5" y="333.8711">viewAllFriends(UserManager): String</text><ellipse cx="1033.5" cy="344.1689" fill="#84BE84" rx="3" ry="3" style="stroke: #038048; stroke-width: 1.0;"/><text fill="#000000" font-family="sans-serif" font-size="11" lengthAdjust="spacingAndGlyphs" textLength="209" x="1042.5" y="346.8262">addFriend(UserManager, String): String</text><ellipse cx="1033.5" cy="357.124" fill="#84BE84" rx="3" ry="3" style="stroke: #038048; stroke-width: 1.0;"/><text fill="#000000" font-family="sans-serif" font-size="11" lengthAdjust="spacingAndGlyphs" textLength="229" x="1042.5" y="359.7813">removeFriend(UserManager, String): String</text><ellipse cx="1033.5" cy="370.0791" fill="#84BE84" rx="3" ry="3" style="stroke: #038048; stroke-width: 1.0;"/><text fill="#000000" font-family="sans-serif" font-size="11" lengthAdjust="spacingAndGlyphs" textLength="313" x="1042.5" y="372.7363">displayUsersFromIdList(UserManager, List&lt;UUID&gt;): String</text><ellipse cx="1033.5" cy="383.0342" fill="#84BE84" rx="3" ry="3" style="stroke: #038048; stroke-width: 1.0;"/><text fill="#000000" font-family="sans-serif" font-size="11" lengthAdjust="spacingAndGlyphs" textLength="421" x="1042.5" y="385.6914">viewUserRequests(UserRequestManager, UserManager, EventsManager): String</text><ellipse cx="1033.5" cy="395.9893" fill="#84BE84" rx="3" ry="3" style="stroke: #038048; stroke-width: 1.0;"/><text fill="#000000" font-family="sans-serif" font-size="11" lengthAdjust="spacingAndGlyphs" textLength="387" x="1042.5" y="398.6465">addUserRequest(UserRequestManager, UserManager, String, UUID): void</text><ellipse cx="1033.5" cy="408.9443" fill="#84BE84" rx="3" ry="3" style="stroke: #038048; stroke-width: 1.0;"/><text fill="#000000" font-family="sans-serif" font-size="11" lengthAdjust="spacingAndGlyphs" textLength="338" x="1042.5" y="411.6016">markUserRequestAsAddressed(UserRequestManager, int): void</text><ellipse cx="1033.5" cy="421.8994" fill="#84BE84" rx="3" ry="3" style="stroke: #038048; stroke-width: 1.0;"/><text fill="#000000" font-family="sans-serif" font-size="11" lengthAdjust="spacingAndGlyphs" textLength="222" x="1042.5" y="424.5566">getUserName(UserManager, UUID): String</text><ellipse cx="1033.5" cy="434.8545" fill="#84BE84" rx="3" ry="3" style="stroke: #038048; stroke-width: 1.0;"/><text fill="#000000" font-family="sans-serif" font-size="11" lengthAdjust="spacingAndGlyphs" textLength="382" x="1042.5" y="437.5117">statsGetTopEnrolledEvents(EventsManager): HashMap&lt;String, Integer&gt;</text><ellipse cx="1033.5" cy="447.8096" fill="#84BE84" rx="3" ry="3" style="stroke: #038048; stroke-width: 1.0;"/><text fill="#000000" font-family="sans-serif" font-size="11" lengthAdjust="spacingAndGlyphs" textLength="368" x="1042.5" y="450.4668">statsGetTopEnrolledUsers(UserManager): HashMap&lt;String, Integer&gt;</text></a><!--class controllers.OrganizerController--><a href="OrganizerController.html" target="_top" xlink:actuate="onRequest" xlink:show="new" xlink:title="OrganizerController.html" xlink:type="simple"><rect fill="#FEFECE" filter="url(#ft2nna1u77uco)" height="177.5508" id="controllers.OrganizerController" style="stroke: #A80036; stroke-width: 1.5;" width="930" x="38" y="517"/><ellipse cx="442.25" cy="533" fill="#ADD1B2" rx="11" ry="11" style="stroke: #A80036; stroke-width: 1.0;"/><path d="M444.7231,539.1431 Q444.1421,539.4419 443.5029,539.5913 Q442.8638,539.7407 442.1582,539.7407 Q439.6514,539.7407 438.3315,538.0889 Q437.0117,536.437 437.0117,533.3159 Q437.0117,530.1865 438.3315,528.5347 Q439.6514,526.8828 442.1582,526.8828 Q442.8638,526.8828 443.5112,527.0322 Q444.1587,527.1816 444.7231,527.4805 L444.7231,530.2031 Q444.0923,529.6221 443.4988,529.3523 Q442.9053,529.0825 442.2744,529.0825 Q440.9297,529.0825 440.2449,530.1492 Q439.5601,531.2158 439.5601,533.3159 Q439.5601,535.4077 440.2449,536.4744 Q440.9297,537.541 442.2744,537.541 Q442.9053,537.541 443.4988,537.2712 Q444.0923,537.0015 444.7231,536.4204 Z "/><text fill="#000000" font-family="sans-serif" font-size="12" lengthAdjust="spacingAndGlyphs" textLength="113" x="462.75" y="537.5352">OrganizerController</text><line style="stroke: #A80036; stroke-width: 1.5;" x1="39" x2="967" y1="549" y2="549"/><line style="stroke: #A80036; stroke-width: 1.5;" x1="39" x2="967" y1="557" y2="557"/><ellipse cx="49" cy="568.9775" fill="#84BE84" rx="3" ry="3" style="stroke: #038048; stroke-width: 1.0;"/><text fill="#000000" font-family="sans-serif" font-size="11" lengthAdjust="spacingAndGlyphs" textLength="436" x="58" y="571.6348">sendMessageToAll(UserManager, ConversationManager, String, UserType): String</text><ellipse cx="49" cy="581.9326" fill="#84BE84" rx="3" ry="3" style="stroke: #038048; stroke-width: 1.0;"/><text fill="#000000" font-family="sans-serif" font-size="11" lengthAdjust="spacingAndGlyphs" textLength="904" x="58" y="584.5898">createNewEvent(RoomManager, EventsManager, UserManager, ConversationManager, String, LocalDateTime, UUID, HashSet&lt;UUID&gt;, int, int, List&lt;RoomFeatures&gt;): String</text><ellipse cx="49" cy="594.8877" fill="#84BE84" rx="3" ry="3" style="stroke: #038048; stroke-width: 1.0;"/><text fill="#000000" font-family="sans-serif" font-size="11" lengthAdjust="spacingAndGlyphs" textLength="327" x="58" y="597.5449">createUser(UserManager, String, String, String, String): String</text><ellipse cx="49" cy="607.8428" fill="#84BE84" rx="3" ry="3" style="stroke: #038048; stroke-width: 1.0;"/><text fill="#000000" font-family="sans-serif" font-size="11" lengthAdjust="spacingAndGlyphs" textLength="321" x="58" y="610.5">changeUserType(UserManager, String, String, String): String</text><ellipse cx="49" cy="620.7979" fill="#84BE84" rx="3" ry="3" style="stroke: #038048; stroke-width: 1.0;"/><text fill="#000000" font-family="sans-serif" font-size="11" lengthAdjust="spacingAndGlyphs" textLength="285" x="58" y="623.4551">editRoomFeature(RoomManager, UUID, String): String</text><ellipse cx="49" cy="633.7529" fill="#84BE84" rx="3" ry="3" style="stroke: #038048; stroke-width: 1.0;"/><text fill="#000000" font-family="sans-serif" font-size="11" lengthAdjust="spacingAndGlyphs" textLength="295" x="58" y="636.4102">addNewRooms(RoomManager, String, int, int, int): UUID</text><ellipse cx="49" cy="646.708" fill="#84BE84" rx="3" ry="3" style="stroke: #038048; stroke-width: 1.0;"/><text fill="#000000" font-family="sans-serif" font-size="11" lengthAdjust="spacingAndGlyphs" textLength="255" x="58" y="649.3652">addSpeaker(EventsManager, UUID, UUID): String</text><ellipse cx="49" cy="659.6631" fill="#84BE84" rx="3" ry="3" style="stroke: #038048; stroke-width: 1.0;"/><text fill="#000000" font-family="sans-serif" font-size="11" lengthAdjust="spacingAndGlyphs" textLength="275" x="58" y="662.3203">removeSpeaker(EventsManager, UUID, UUID): String</text><ellipse cx="49" cy="672.6182" fill="#84BE84" rx="3" ry="3" style="stroke: #038048; stroke-width: 1.0;"/><text fill="#000000" font-family="sans-serif" font-size="11" lengthAdjust="spacingAndGlyphs" textLength="374" x="58" y="675.2754">cancelEvent(EventsManager, UserManager, RoomManager, UUID): void</text><ellipse cx="49" cy="685.5732" fill="#84BE84" rx="3" ry="3" style="stroke: #038048; stroke-width: 1.0;"/><text fill="#000000" font-family="sans-serif" font-size="11" lengthAdjust="spacingAndGlyphs" textLength="294" x="58" y="688.2305">changeEventCapacity(EventsManager, UUID, int): String</text></a><!--class controllers.MainController--><a href="MainController.html" target="_top" xlink:actuate="onRequest" xlink:show="new" xlink:title="MainController.html" xlink:type="simple"><rect fill="#FEFECE" filter="url(#ft2nna1u77uco)" height="99.8203" id="controllers.MainController" style="stroke: #A80036; stroke-width: 1.5;" width="180" x="423" y="208"/><ellipse cx="467.25" cy="224" fill="#ADD1B2" rx="11" ry="11" style="stroke: #A80036; stroke-width: 1.0;"/><path d="M469.7231,230.1431 Q469.1421,230.4419 468.5029,230.5913 Q467.8638,230.7407 467.1582,230.7407 Q464.6514,230.7407 463.3315,229.0889 Q462.0117,227.437 462.0117,224.3159 Q462.0117,221.1865 463.3315,219.5347 Q464.6514,217.8828 467.1582,217.8828 Q467.8638,217.8828 468.5112,218.0322 Q469.1587,218.1816 469.7231,218.4805 L469.7231,221.2031 Q469.0923,220.6221 468.4988,220.3523 Q467.9053,220.0825 467.2744,220.0825 Q465.9297,220.0825 465.2449,221.1492 Q464.5601,222.2158 464.5601,224.3159 Q464.5601,226.4077 465.2449,227.4744 Q465.9297,228.541 467.2744,228.541 Q467.9053,228.541 468.4988,228.2712 Q469.0923,228.0015 469.7231,227.4204 Z "/><text fill="#000000" font-family="sans-serif" font-size="12" lengthAdjust="spacingAndGlyphs" textLength="83" x="487.75" y="228.5352">MainController</text><line style="stroke: #A80036; stroke-width: 1.5;" x1="424" x2="602" y1="240" y2="240"/><line style="stroke: #A80036; stroke-width: 1.5;" x1="424" x2="602" y1="248" y2="248"/><ellipse cx="434" cy="259.9775" fill="#84BE84" rx="3" ry="3" style="stroke: #038048; stroke-width: 1.0;"/><text fill="#000000" font-family="sans-serif" font-size="11" lengthAdjust="spacingAndGlyphs" textLength="104" x="443" y="262.6348">displayMenu(): void</text><ellipse cx="434" cy="272.9326" fill="#84BE84" rx="3" ry="3" style="stroke: #038048; stroke-width: 1.0;"/><text fill="#000000" font-family="sans-serif" font-size="11" lengthAdjust="spacingAndGlyphs" textLength="128" x="443" y="275.5898">viewUserRequest(): void</text><ellipse cx="434" cy="285.8877" fill="#84BE84" rx="3" ry="3" style="stroke: #038048; stroke-width: 1.0;"/><text fill="#000000" font-family="sans-serif" font-size="11" lengthAdjust="spacingAndGlyphs" textLength="148" x="443" y="288.5449">addressUserRequest(): void</text><ellipse cx="434" cy="298.8428" fill="#84BE84" rx="3" ry="3" style="stroke: #038048; stroke-width: 1.0;"/><text fill="#000000" font-family="sans-serif" font-size="11" lengthAdjust="spacingAndGlyphs" textLength="154" x="443" y="301.5">serializeAllWhenClose(): void</text></a><!--class controllers.SpeakerController--><a href="SpeakerController.html" target="_top" xlink:actuate="onRequest" xlink:show="new" xlink:title="SpeakerController.html" xlink:type="simple"><rect fill="#FEFECE" filter="url(#ft2nna1u77uco)" height="99.8203" id="controllers.SpeakerController" style="stroke: #A80036; stroke-width: 1.5;" width="594" x="1003" y="556"/><ellipse cx="1244.25" cy="572" fill="#ADD1B2" rx="11" ry="11" style="stroke: #A80036; stroke-width: 1.0;"/><path d="M1246.7231,578.1431 Q1246.1421,578.4419 1245.5029,578.5913 Q1244.8638,578.7407 1244.1582,578.7407 Q1241.6514,578.7407 1240.3315,577.0889 Q1239.0117,575.437 1239.0117,572.3159 Q1239.0117,569.1865 1240.3315,567.5347 Q1241.6514,565.8828 1244.1582,565.8828 Q1244.8638,565.8828 1245.5112,566.0322 Q1246.1587,566.1816 1246.7231,566.4805 L1246.7231,569.2031 Q1246.0923,568.6221 1245.4988,568.3523 Q1244.9053,568.0825 1244.2744,568.0825 Q1242.9297,568.0825 1242.2449,569.1492 Q1241.5601,570.2158 1241.5601,572.3159 Q1241.5601,574.4077 1242.2449,575.4744 Q1242.9297,576.541 1244.2744,576.541 Q1244.9053,576.541 1245.4988,576.2712 Q1246.0923,576.0015 1246.7231,575.4204 Z "/><text fill="#000000" font-family="sans-serif" font-size="12" lengthAdjust="spacingAndGlyphs" textLength="103" x="1264.75" y="576.5352">SpeakerController</text><line style="stroke: #A80036; stroke-width: 1.5;" x1="1004" x2="1596" y1="588" y2="588"/><line style="stroke: #A80036; stroke-width: 1.5;" x1="1004" x2="1596" y1="596" y2="596"/><ellipse cx="1014" cy="607.9775" fill="#84BE84" rx="3" ry="3" style="stroke: #038048; stroke-width: 1.0;"/><text fill="#000000" font-family="sans-serif" font-size="11" lengthAdjust="spacingAndGlyphs" textLength="568" x="1023" y="610.6348">sendMessageToEventAttendees(EventsManager, UserManager, ConversationManager, String, UUID): String</text><ellipse cx="1014" cy="620.9326" fill="#84BE84" rx="3" ry="3" style="stroke: #038048; stroke-width: 1.0;"/><text fill="#000000" font-family="sans-serif" font-size="11" lengthAdjust="spacingAndGlyphs" textLength="379" x="1023" y="623.5898">getScheduledTalkIds(UserManager, EventsManager, UUID): List&lt;UUID&gt;</text><ellipse cx="1014" cy="633.8877" fill="#84BE84" rx="3" ry="3" style="stroke: #038048; stroke-width: 1.0;"/><text fill="#000000" font-family="sans-serif" font-size="11" lengthAdjust="spacingAndGlyphs" textLength="426" x="1023" y="636.5449">viewScheduledTalks(UserManager, EventsManager, RoomManager, UUID): String</text><ellipse cx="1014" cy="646.8428" fill="#84BE84" rx="3" ry="3" style="stroke: #038048; stroke-width: 1.0;"/><text fill="#000000" font-family="sans-serif" font-size="11" lengthAdjust="spacingAndGlyphs" textLength="343" x="1023" y="649.5">viewEventAttendees(EventsManager, UserManager, UUID): String</text></a><!--class controllers.VipController--><a href="VipController.html" target="_top" xlink:actuate="onRequest" xlink:show="new" xlink:title="VipController.html" xlink:type="simple"><rect fill="#FEFECE" filter="url(#ft2nna1u77uco)" height="138.6855" id="controllers.VipController" style="stroke: #A80036; stroke-width: 1.5;" width="308" x="1632" y="536.5"/><ellipse cx="1744.25" cy="552.5" fill="#ADD1B2" rx="11" ry="11" style="stroke: #A80036; stroke-width: 1.0;"/><path d="M1746.7231,558.6431 Q1746.1421,558.9419 1745.5029,559.0913 Q1744.8638,559.2407 1744.1582,559.2407 Q1741.6514,559.2407 1740.3315,557.5889 Q1739.0117,555.937 1739.0117,552.8159 Q1739.0117,549.6865 1740.3315,548.0347 Q1741.6514,546.3828 1744.1582,546.3828 Q1744.8638,546.3828 1745.5112,546.5322 Q1746.1587,546.6816 1746.7231,546.9805 L1746.7231,549.7031 Q1746.0923,549.1221 1745.4988,548.8523 Q1744.9053,548.5825 1744.2744,548.5825 Q1742.9297,548.5825 1742.2449,549.6492 Q1741.5601,550.7158 1741.5601,552.8159 Q1741.5601,554.9077 1742.2449,555.9744 Q1742.9297,557.041 1744.2744,557.041 Q1744.9053,557.041 1745.4988,556.7712 Q1746.0923,556.5015 1746.7231,555.9204 Z "/><text fill="#000000" font-family="sans-serif" font-size="12" lengthAdjust="spacingAndGlyphs" textLength="75" x="1764.75" y="557.0352">VipController</text><line style="stroke: #A80036; stroke-width: 1.5;" x1="1633" x2="1939" y1="568.5" y2="568.5"/><line style="stroke: #A80036; stroke-width: 1.5;" x1="1633" x2="1939" y1="576.5" y2="576.5"/><ellipse cx="1643" cy="588.4775" fill="#84BE84" rx="3" ry="3" style="stroke: #038048; stroke-width: 1.0;"/><text fill="#000000" font-family="sans-serif" font-size="11" lengthAdjust="spacingAndGlyphs" textLength="265" x="1652" y="591.1348">getInterestedEventIds(UserManager): List&lt;UUID&gt;</text><ellipse cx="1643" cy="601.4326" fill="#84BE84" rx="3" ry="3" style="stroke: #038048; stroke-width: 1.0;"/><text fill="#000000" font-family="sans-serif" font-size="11" lengthAdjust="spacingAndGlyphs" textLength="257" x="1652" y="604.0898">uninterestedInEvent(UserManager, UUID): String</text><ellipse cx="1643" cy="614.3877" fill="#84BE84" rx="3" ry="3" style="stroke: #038048; stroke-width: 1.0;"/><text fill="#000000" font-family="sans-serif" font-size="11" lengthAdjust="spacingAndGlyphs" textLength="243" x="1652" y="617.0449">interestedInEvent(UserManager, UUID): String</text><ellipse cx="1643" cy="627.3428" fill="#84BE84" rx="3" ry="3" style="stroke: #038048; stroke-width: 1.0;"/><text fill="#000000" font-family="sans-serif" font-size="11" lengthAdjust="spacingAndGlyphs" textLength="238" x="1652" y="630">viewFavouriteSpeakers(UserManager): String</text><ellipse cx="1643" cy="640.2979" fill="#84BE84" rx="3" ry="3" style="stroke: #038048; stroke-width: 1.0;"/><text fill="#000000" font-family="sans-serif" font-size="11" lengthAdjust="spacingAndGlyphs" textLength="262" x="1652" y="642.9551">addFavouriteSpeaker(UserManager, UUID): String</text><ellipse cx="1643" cy="653.2529" fill="#84BE84" rx="3" ry="3" style="stroke: #038048; stroke-width: 1.0;"/><text fill="#000000" font-family="sans-serif" font-size="11" lengthAdjust="spacingAndGlyphs" textLength="282" x="1652" y="655.9102">removeFavouriteSpeaker(UserManager, UUID): String</text><ellipse cx="1643" cy="666.208" fill="#84BE84" rx="3" ry="3" style="stroke: #038048; stroke-width: 1.0;"/><text fill="#000000" font-family="sans-serif" font-size="11" lengthAdjust="spacingAndGlyphs" textLength="280" x="1652" y="668.8652">getFavouriteSpeakersIds(UserManager): List&lt;UUID&gt;</text></a><!--link controllers.UserController to controllers.OrganizerController--><path d="M1003.95,387.52 C904.7,430.61 796.35,477.65 705.89,516.92 " fill="none" id="controllers.UserController-controllers.OrganizerController" style="stroke: #A80036; stroke-width: 1.0;"/><polygon fill="none" points="1001.23,381.07,1022.37,379.53,1006.81,393.91,1001.23,381.07" style="stroke: #A80036; stroke-width: 1.0;"/><!--link controllers.UserController to controllers.SpeakerController--><path d="M1300,477.05 C1300,506.39 1300,533.88 1300,555.8 " fill="none" id="controllers.UserController-controllers.SpeakerController" style="stroke: #A80036; stroke-width: 1.0;"/><polygon fill="none" points="1293,477.01,1300,457.01,1307,477.01,1293,477.01" style="stroke: #A80036; stroke-width: 1.0;"/><!--link controllers.UserController to controllers.VipController--><path d="M1594.13,468.4 C1628.36,492.77 1661.16,516.12 1689.67,536.42 " fill="none" id="controllers.UserController-controllers.VipController" style="stroke: #A80036; stroke-width: 1.0;"/><polygon fill="none" points="1590.01,474.06,1577.78,456.76,1598.13,462.66,1590.01,474.06" style="stroke: #A80036; stroke-width: 1.0;"/><text fill="#888888" font-family="sans-serif" font-size="10" lengthAdjust="spacingAndGlyphs" textLength="182" x="904" y="746.668">UMLDoclet 1.1.4, PlantUML 1.2019.05</text><!--
@startuml

    namespace controllers {

        class UserController [[UserController.html]] {
            +getUserOptions(UserManager): List<UserOption>
            +loginAsAGuest(UserManager): String
            +login(UserManager, String, String): boolean
            +logout(UserManager): void
            +sendMessage(UserManager, ConversationManager, String, ArrayList<Integer>, ConvoType): String
            +replyToConversation(ConversationManager, UserManager, String, int): String
            +deleteConversation(ConversationManager, UserManager, int, int): void
            +archiveConversation(ConversationManager, UserManager, int, int): void
            +markConversationAsUnread(ConversationManager, UserManager, int): void
            +signUpToEvent(UserManager, EventsManager, RoomManager, UUID): String
            +disEnrollToEvent(UserManager, EventsManager, UUID): String
            +getAllEventIds(EventsManager): List<UUID>
            +getAllEvents(EventsManager): List<Event>
            +getSpeakers(EventsManager, UUID): List<UUID>
            +viewEventsByDay(EventsManager, RoomManager, LocalDate): String
            +viewConversations(UserManager, ConversationManager): String
            +viewMessages(UserManager, ConversationManager, int): String
            +viewAllFriends(UserManager): String
            +addFriend(UserManager, String): String
            +removeFriend(UserManager, String): String
            +displayUsersFromIdList(UserManager, List<UUID>): String
            +viewUserRequests(UserRequestManager, UserManager, EventsManager): String
            +addUserRequest(UserRequestManager, UserManager, String, UUID): void
            +markUserRequestAsAddressed(UserRequestManager, int): void
            +getUserName(UserManager, UUID): String
            +statsGetTopEnrolledEvents(EventsManager): HashMap<String, Integer>
            +statsGetTopEnrolledUsers(UserManager): HashMap<String, Integer>
        }

        class OrganizerController [[OrganizerController.html]] {
            +sendMessageToAll(UserManager, ConversationManager, String, UserType): String
            +createNewEvent(RoomManager, EventsManager, UserManager, ConversationManager, String, LocalDateTime, UUID, HashSet<UUID>, int, int, List<RoomFeatures>): String
            +createUser(UserManager, String, String, String, String): String
            +changeUserType(UserManager, String, String, String): String
            +editRoomFeature(RoomManager, UUID, String): String
            +addNewRooms(RoomManager, String, int, int, int): UUID
            +addSpeaker(EventsManager, UUID, UUID): String
            +removeSpeaker(EventsManager, UUID, UUID): String
            +cancelEvent(EventsManager, UserManager, RoomManager, UUID): void
            +changeEventCapacity(EventsManager, UUID, int): String
        }

        class MainController [[MainController.html]] {
            +displayMenu(): void
            +viewUserRequest(): void
            +addressUserRequest(): void
            +serializeAllWhenClose(): void
        }

        class SpeakerController [[SpeakerController.html]] {
            +sendMessageToEventAttendees(EventsManager, UserManager, ConversationManager, String, UUID): String
            +getScheduledTalkIds(UserManager, EventsManager, UUID): List<UUID>
            +viewScheduledTalks(UserManager, EventsManager, RoomManager, UUID): String
            +viewEventAttendees(EventsManager, UserManager, UUID): String
        }

        class VipController [[VipController.html]] {
            +getInterestedEventIds(UserManager): List<UUID>
            +uninterestedInEvent(UserManager, UUID): String
            +interestedInEvent(UserManager, UUID): String
            +viewFavouriteSpeakers(UserManager): String
            +addFavouriteSpeaker(UserManager, UUID): String
            +removeFavouriteSpeaker(UserManager, UUID): String
            +getFavouriteSpeakersIds(UserManager): List<UUID>
        }

        UserController <|- - OrganizerController

        UserController <|- - SpeakerController

        UserController <|- - VipController

    }


    center footer UMLDoclet 1.1.4, PlantUML 1.2019.05
@enduml

PlantUML version 1.2019.05(Sat Apr 20 12:45:36 EDT 2019)
(APACHE source distribution)
Java Runtime: Java(TM) SE Runtime Environment
JVM: Java HotSpot(TM) 64-Bit Server VM
Java Version: 1.8.0_261-b12
Operating System: Mac OS X
OS Version: 10.16
Default Encoding: UTF-8
Language: en
Country: CA
--></g></svg>