<?xml version="1.0" encoding="UTF-8" standalone="no"?><svg xmlns="http://www.w3.org/2000/svg" xmlns:xlink="http://www.w3.org/1999/xlink" contentScriptType="application/ecmascript" contentStyleType="text/css" height="115px" preserveAspectRatio="none" style="width:194px;height:115px;" version="1.1" viewBox="0 0 194 115" width="194px" zoomAndPan="magnify"><defs><filter height="300%" id="f5klta2byas5n" width="300%" x="-1" y="-1"><feGaussianBlur result="blurOut" stdDeviation="2.0"/><feColorMatrix in="blurOut" result="blurOut2" type="matrix" values="0 0 0 0 0 0 0 0 0 0 0 0 0 0 0 0 0 0 .4 0"/><feOffset dx="4.0" dy="4.0" in="blurOut2" result="blurOut3"/><feBlend in="SourceGraphic" in2="blurOut3" mode="normal"/></filter></defs><g><!--class AppPresenter--><a href="AppPresenter.html" target="_top" xlink:actuate="onRequest" xlink:show="new" xlink:title="AppPresenter.html" xlink:type="simple"><rect fill="#FEFECE" filter="url(#f5klta2byas5n)" height="73.9102" id="AppPresenter" style="stroke: #A80036; stroke-width: 1.5;" width="131" x="19.5" y="8"/><ellipse cx="43.5" cy="24" fill="#ADD1B2" rx="11" ry="11" style="stroke: #A80036; stroke-width: 1.0;"/><path d="M45.9731,30.1431 Q45.3921,30.4419 44.7529,30.5913 Q44.1138,30.7407 43.4082,30.7407 Q40.9014,30.7407 39.5815,29.0889 Q38.2617,27.437 38.2617,24.3159 Q38.2617,21.1865 39.5815,19.5347 Q40.9014,17.8828 43.4082,17.8828 Q44.1138,17.8828 44.7612,18.0322 Q45.4087,18.1816 45.9731,18.4805 L45.9731,21.2031 Q45.3423,20.6221 44.7488,20.3523 Q44.1553,20.0825 43.5244,20.0825 Q42.1797,20.0825 41.4949,21.1492 Q40.8101,22.2158 40.8101,24.3159 Q40.8101,26.4077 41.4949,27.4744 Q42.1797,28.541 43.5244,28.541 Q44.1553,28.541 44.7488,28.2712 Q45.3423,28.0015 45.9731,27.4204 Z "/><text fill="#000000" font-family="sans-serif" font-size="12" lengthAdjust="spacingAndGlyphs" textLength="79" x="59.5" y="28.5352">AppPresenter</text><line style="stroke: #A80036; stroke-width: 1.5;" x1="20.5" x2="149.5" y1="40" y2="40"/><line style="stroke: #A80036; stroke-width: 1.5;" x1="20.5" x2="149.5" y1="48" y2="48"/><ellipse cx="30.5" cy="59.9775" fill="#84BE84" rx="3" ry="3" style="stroke: #038048; stroke-width: 1.0;"/><text fill="#000000" font-family="sans-serif" font-size="11" lengthAdjust="spacingAndGlyphs" textLength="105" x="39.5" y="62.6348">println(String): void</text><ellipse cx="30.5" cy="72.9326" fill="#84BE84" rx="3" ry="3" style="stroke: #038048; stroke-width: 1.0;"/><text fill="#000000" font-family="sans-serif" font-size="11" lengthAdjust="spacingAndGlyphs" textLength="95" x="39.5" y="75.5898">print(String): void</text></a><text fill="#888888" font-family="sans-serif" font-size="10" lengthAdjust="spacingAndGlyphs" textLength="182" x="0" y="101.668">UMLDoclet 1.1.4, PlantUML 1.2019.05</text><!--
@startuml

    class AppPresenter [[AppPresenter.html]] {
        +println(String): void
        +print(String): void
    }


    center footer UMLDoclet 1.1.4, PlantUML 1.2019.05
@enduml

PlantUML version 1.2019.05(Sat Apr 20 12:45:36 EDT 2019)
(APACHE source distribution)
Java Runtime: Java(TM) SE Runtime Environment
JVM: Java HotSpot(TM) 64-Bit Server VM
Java Version: 1.8.0_261-b12
Operating System: Mac OS X
OS Version: 10.16
Default Encoding: UTF-8
Language: en
Country: CA
--></g></svg>