<?xml version="1.0" encoding="UTF-8" standalone="no"?><svg xmlns="http://www.w3.org/2000/svg" xmlns:xlink="http://www.w3.org/1999/xlink" contentScriptType="application/ecmascript" contentStyleType="text/css" height="198px" preserveAspectRatio="none" style="width:213px;height:198px;" version="1.1" viewBox="0 0 213 198" width="213px" zoomAndPan="magnify"><defs><filter height="300%" id="f14174fvgbvvd7" width="300%" x="-1" y="-1"><feGaussianBlur result="blurOut" stdDeviation="2.0"/><feColorMatrix in="blurOut" result="blurOut2" type="matrix" values="0 0 0 0 0 0 0 0 0 0 0 0 0 0 0 0 0 0 .4 0"/><feOffset dx="4.0" dy="4.0" in="blurOut2" result="blurOut3"/><feBlend in="SourceGraphic" in2="blurOut3" mode="normal"/></filter></defs><g><!--cluster presenters--><polygon fill="#FFFFFF" filter="url(#f14174fvgbvvd7)" points="22,24,104,24,111,46.4883,186,46.4883,186,149,22,149,22,24" style="stroke: #000000; stroke-width: 1.5;"/><line style="stroke: #000000; stroke-width: 1.5;" x1="22" x2="111" y1="46.4883" y2="46.4883"/><text fill="#000000" font-family="sans-serif" font-size="14" font-weight="bold" lengthAdjust="spacingAndGlyphs" textLength="76" x="26" y="39.5352">presenters</text><!--class presenters.AppPresenter--><a href="AppPresenter.html" target="_top" xlink:actuate="onRequest" xlink:show="new" xlink:title="AppPresenter.html" xlink:type="simple"><rect fill="#FEFECE" filter="url(#f14174fvgbvvd7)" height="73.9102" id="presenters.AppPresenter" style="stroke: #A80036; stroke-width: 1.5;" width="131" x="38.5" y="59"/><ellipse cx="62.5" cy="75" fill="#ADD1B2" rx="11" ry="11" style="stroke: #A80036; stroke-width: 1.0;"/><path d="M64.9731,81.1431 Q64.3921,81.4419 63.7529,81.5913 Q63.1138,81.7407 62.4082,81.7407 Q59.9014,81.7407 58.5815,80.0889 Q57.2617,78.437 57.2617,75.3159 Q57.2617,72.1865 58.5815,70.5347 Q59.9014,68.8828 62.4082,68.8828 Q63.1138,68.8828 63.7612,69.0322 Q64.4087,69.1816 64.9731,69.4805 L64.9731,72.2031 Q64.3423,71.6221 63.7488,71.3523 Q63.1553,71.0825 62.5244,71.0825 Q61.1797,71.0825 60.4949,72.1492 Q59.8101,73.2158 59.8101,75.3159 Q59.8101,77.4077 60.4949,78.4744 Q61.1797,79.541 62.5244,79.541 Q63.1553,79.541 63.7488,79.2712 Q64.3423,79.0015 64.9731,78.4204 Z "/><text fill="#000000" font-family="sans-serif" font-size="12" lengthAdjust="spacingAndGlyphs" textLength="79" x="78.5" y="79.5352">AppPresenter</text><line style="stroke: #A80036; stroke-width: 1.5;" x1="39.5" x2="168.5" y1="91" y2="91"/><line style="stroke: #A80036; stroke-width: 1.5;" x1="39.5" x2="168.5" y1="99" y2="99"/><ellipse cx="49.5" cy="110.9775" fill="#84BE84" rx="3" ry="3" style="stroke: #038048; stroke-width: 1.0;"/><text fill="#000000" font-family="sans-serif" font-size="11" lengthAdjust="spacingAndGlyphs" textLength="105" x="58.5" y="113.6348">println(String): void</text><ellipse cx="49.5" cy="123.9326" fill="#84BE84" rx="3" ry="3" style="stroke: #038048; stroke-width: 1.0;"/><text fill="#000000" font-family="sans-serif" font-size="11" lengthAdjust="spacingAndGlyphs" textLength="95" x="58.5" y="126.5898">print(String): void</text></a><text fill="#888888" font-family="sans-serif" font-size="10" lengthAdjust="spacingAndGlyphs" textLength="182" x="19" y="184.668">UMLDoclet 1.1.4, PlantUML 1.2019.05</text><!--
@startuml

    namespace presenters {

        class AppPresenter [[AppPresenter.html]] {
            +println(String): void
            +print(String): void
        }

    }


    center footer UMLDoclet 1.1.4, PlantUML 1.2019.05
@enduml

PlantUML version 1.2019.05(Sat Apr 20 12:45:36 EDT 2019)
(APACHE source distribution)
Java Runtime: Java(TM) SE Runtime Environment
JVM: Java HotSpot(TM) 64-Bit Server VM
Java Version: 1.8.0_261-b12
Operating System: Mac OS X
OS Version: 10.16
Default Encoding: UTF-8
Language: en
Country: CA
--></g></svg>